<svg xmlns="http://www.w3.org/2000/svg" xmlns:xlink="http://www.w3.org/1999/xlink" viewBox="0 0 813.116 788.164">
  <g id="Canada" transform="translate(-971.193 -8.263)">
    <a xlink:href="/ab"><path id="CA-AB" d="M1222.662,910.209c-33.92-8.955-30.27-7.593-32.285-12.08l-1.7-3.784,1.382-7c1.451-7.386,1.369-9.255-.564-13.109-.659-1.309-2.51-5-4.12-8.2a95.23,95.23,0,0,1-4.259-9.824,35.276,35.276,0,0,0-3.182-6.788,17.066,17.066,0,0,1-2.25-5.07,11.132,11.132,0,0,0-2.231-4.367,8.374,8.374,0,0,1-1.813-2.754,7.416,7.416,0,0,0-1.318-2.521,16.679,16.679,0,0,1-1.92-6.112,16.257,16.257,0,0,0-2.13-6.488,23.013,23.013,0,0,1-2.18-3.947,8.24,8.24,0,0,0-2.877-3.169c-2.2-1.427-3.017-3.751-1.616-4.617.349-.215.634-1.975.634-3.911,0-3.442,4.158-15.376,32.437-93.115l2.554-7.029,14.032,4.668c7.72,2.567,19.457,6.255,26.08,8.2s18.3,5.358,25.935,7.594,13.969,4.137,14.051,4.223c.418.418-1.882,9.721-2.51,10.139a9.527,9.527,0,0,1-2.244.887c-1.591.422-8.246,7-8.277,8.18-.013.371,1,1.16,2.244,1.754,2.18,1.039,2.332,1.031,4.082-.215a6.675,6.675,0,0,0,2.231-2.594c.228-.715.545-1.168.7-1.008s-.83,4.959-2.206,10.664c-3.239,13.469-6.731,28.057-11.51,48.084-2.123,8.889-4.544,19.014-5.387,22.5-4.227,17.577-8,33.278-10.033,41.83-10.762,45.151-9.849,41.545-10.451,41.424C1231.731,912.592,1227.542,911.5,1222.662,910.209Z" transform="translate(-68.744 -255.637)" fill="currentColor"/>
    </a><a xlink:href="/bc"><g id="CA-BC" transform="translate(971.193 374.283)">
      <path id="Path_1" data-name="Path 1" d="M1029.818,941.791c-4.05-2.575-10.141-10.544-10.141-13.263,0-1.512-.374-2.034-1.863-2.6-1.882-.71-3.321-3.177-4.151-7.11a15.261,15.261,0,0,0-1.832-4.12,34.074,34.074,0,0,1-2.535-5.07,61.368,61.368,0,0,0-3.682-7.141,29.01,29.01,0,0,1-3.372-8.239,43.3,43.3,0,0,0-1.654-6.029c-.813-1.99-.769-2.144,1.039-3.621a6.926,6.926,0,0,1,3.106-1.566c1.255-.023,5.032,3.607,11.142,10.711,1.92,2.229,3.777,4.362,4.126,4.74s1.635,1.971,2.839,3.54,2.358,2.995,2.561,3.169c.881.768,2.491,6.362,2.9,10.07.38,3.548.824,4.561,3.568,8.19,3.657,4.831,3.967,5.543,4.576,10.5a36.542,36.542,0,0,0,1.306,6.122c.469,1.32.678,2.569.475,2.775C1037.271,943.8,1031.916,943.127,1029.818,941.791Z" transform="translate(-981.772 -694.635)" fill="currentColor"/>
      <path id="Path_2" data-name="Path 2" d="M1125.543,856.817c-.577-.165-13.633-4.221-23.767-7.384-3.492-1.09-40.531-14.974-55.773-20.91-2.611-1.018-5.609-2.164-6.655-2.547-2.421-.886-2.833-1.527-2.839-4.456a4.185,4.185,0,0,0-1.344-3.486c-3.682-3.052-5.007-4.583-5.007-5.793,0-.732-.247-1.33-.545-1.33-1.54,0-3.752-3.37-4.145-6.3a21.622,21.622,0,0,0-6.484-12.659c-3.346-3.391-3.384-3.463-3.01-6.5.3-2.485.19-3.067-.589-3.067a1.369,1.369,0,0,1-1.179-.5,14.589,14.589,0,0,0-3.22-2.245c-1.654-.961-3.03-2.091-3.061-2.512a18.032,18.032,0,0,0-.311-2.033c-.355-1.71-.387-2.837-.285-9.638.082-5.678.133-5.879,2.009-7.456,1.768-1.491,1.87-1.779,1.229-3.607a16.455,16.455,0,0,1-.691-4.485c0-1.894-.621-3.381-2.561-6.149-2.149-3.059-2.5-4-2.2-5.8a6.232,6.232,0,0,1,1.654-3.246c1.445-1.211,1.306-2.206-.881-6.514-1.1-2.169-1.287-3.721-1.268-10.745.019-7.941.07-8.263,1.635-9.824a17.029,17.029,0,0,1,4.982-2.881c4.557-1.716,8.144-4.969,8.144-7.382,0-2.531,1.369-5.508,3.727-8.1,1.762-1.939,1.977-2.595,1.977-6.075,0-3.53-.177-4.061-1.889-5.586-2.174-1.935-5.964-9.1-7.01-13.253-.615-2.441-.482-3.784,1-9.954,1.508-6.3,1.622-7.55,1.02-10.714a93.923,93.923,0,0,1-1.046-9.6c-.2-3.312-.488-6.621-.64-7.353s-.444-2.444-.64-3.8-1.21-6.036-2.244-10.393-2.028-8.562-2.2-9.345a4.128,4.128,0,0,0-2.643-2.4c-4.443-1.857-5.026-1.835-6.249.234-.824,1.391-2.174,2.286-4.975,3.3-2.123.764-4.976,1.925-6.349,2.58s-2.562,1.19-2.642,1.19a7.618,7.618,0,0,1,.411-2.06c.858-3.168.3-10.8-.934-12.68-1.3-1.989-1.129-7.873.225-7.575.463.1,6.866,4.127,14.233,8.945,20.072,13.135,42.007,26.481,52.68,32.049,5.229,2.728,9.792,5.161,10.141,5.407,1.724,1.216,21.276,11.115,28.52,14.442,4.532,2.08,14.374,6.144,21.866,9.03s13.855,5.444,14.134,5.684.215,1.122-.14,1.959-3.663,9.936-7.365,20.219-7.821,21.691-9.165,25.352c-14.672,39.958-17.746,49-17.746,52.185a9.832,9.832,0,0,1-.944,4.657c-1.375,1.959-.6,4.7,1.775,6.219,2.953,1.9,6.781,9.006,7.238,13.438a14.784,14.784,0,0,0,2.174,6.475,14.608,14.608,0,0,1,1.8,3.469,6.028,6.028,0,0,0,1.489,2.253,13.254,13.254,0,0,1,2.307,4.646,9.554,9.554,0,0,0,1.375,3.372c.8.5,3.441,5.94,3.961,8.178a110.2,110.2,0,0,0,4.963,11.043c2.611,5.285,4.519,9.964,4.525,11.091a67.7,67.7,0,0,1-1.1,7.891c-1.141,6.126-.976,8.763.716,11.342C1126.7,856.627,1126.646,857.141,1125.543,856.817Z" transform="translate(-977.042 -585.775)" fill="currentColor"/>
      <path id="Path_3" data-name="Path 3" d="M974.392,803.673c-2.574-5.959-3.523-13.046-3.1-23.192.244-5.906.658-9.44,1.179-10.068a3.774,3.774,0,0,0,.813-1.991c.015-1.65,2.754-1.583,5.289.131,3.035,2.052,7.079,6.073,7.079,7.038,0,.418-2.567,3.433-5.7,6.7-6.666,6.944-6.754,7.305-4.127,16.8A55.9,55.9,0,0,1,977.4,805.9C977.416,808.117,975.79,806.912,974.392,803.673Z" transform="translate(-971.193 -652.224)" fill="currentColor"/>
    </g>
    </a><a xlink:href="/mb"><path id="CA-MB" d="M1443.435,765.844l-.456,4c-.254,2.206-.539,4.449-.634,4.971s-.38,2.519-.634,4.437-.539,3.914-.634,4.437-.666,4.631-1.268,9.13c-1.033,7.715-1.039,8.3-.019,10.022,1.058,1.792,1.046,1.867-.716,4.08-.982,1.243-2.117,2.737-2.51,3.308s-.932,4.738-1.172,9.269-.526,9.38-.634,10.774-.387,5.1-.615,8.239-.52,7.415-.672,9.507c-.64,8.7-.919,12.3-1.268,17.112-.2,2.789-.488,6.5-.634,8.239s-.437,6.021-.653,9.507-.494,7.479-.615,8.873-.4,5.53-.634,9.19-.52,7.653-.634,8.873-.412,5.495-.653,9.507-.52,7.713-.615,8.239c-.323,1.73-1.192,16.086-1.229,20.281l-.038,4.12,3.8.374c6.1.621,11.915,1.274,13.626,1.527.875.127,3.15.4,5.07.615,3.695.406,5.8.653,11.408,1.325,1.92.228,6.2.608,9.507.837s8.924.488,12.46.589l6.414.2.4-3.055c.209-1.68.526-6.471.71-10.654s.469-9.6.615-12.042.431-8.715.634-13.943c.7-18.11.906-19.99,2.415-22.519.773-1.3,5.267-6.459,10-11.468s9.875-10.523,11.408-12.26,3.08-3.489,3.429-3.882c6.1-6.876,9.031-10.243,12.321-14.181,2.174-2.605,5.926-6.918,8.334-9.586s5.368-5.958,6.56-7.308,3.6-4.025,5.368-5.942,3.22-3.793,3.226-4.159c.013-.71-3.315-2.083-6.179-2.555-4.386-.724-5.59-1.14-6.319-2.178-.615-.876-1.623-1.1-4.633-1.03-2.11.05-4.031.409-4.278.792-.513.787-7.84,1.7-9.272,1.148-.646-.248-.773-.763-.431-1.683.494-1.34.386-2.122-1.407-10.616-1.286-6.1-1.616-7.917-2.06-11.408-.507-4-2.13-5.225-8.753-6.615-4.246-.891-5.679-1.465-6.243-2.5-.792-1.451-.773-6.462.038-13.23l.52-4.278-3.391-.079c-1.851-.044-3.581-.136-3.841-.2s-2.611-.334-5.229-.614-5.184-.584-5.7-.674-2.934-.378-5.349-.634-4.982-.56-5.7-.673-3.017-.38-5.108-.594-6.084-.638-8.873-.951-6.781-.731-8.873-.93-5.134-.534-6.756-.733Zm18.12,108.932c2.446.021,4.082,1.166,5.311,3.585a14.657,14.657,0,0,0,1.781,2.931c1.185.829,4.088,8.532,3.543,9.408-.342.554.8,4.049,2.041,6.278a11.728,11.728,0,0,1,.653,4.753c-.127,3.522,1.965,11.286,3.961,14.717.8,1.382,1.173,3.606,1.312,7.941.184,5.939.152,6.027-1.35,6.236a5.078,5.078,0,0,0-2.713,1.743c-1.369,1.743-2.522,1.933-3.841.615-1.084-1.084-.754-5.615.551-7.625a10,10,0,0,0,1.172-3.087,7.145,7.145,0,0,1,1.109-2.757c1.261-1.521,1.217-3.023-.12-3.86-1.046-.653-1.35-.577-2.022.494-.862,1.382-2.4,1.711-2.4.513a12.554,12.554,0,0,1,.735-2.751c1.7-4.721-1.077-8.794-5.051-7.408-1.623.566-2.085.464-3.15-.713a14.959,14.959,0,0,1-2.218-4.357,21.338,21.338,0,0,0-2.554-5.07,5.031,5.031,0,0,1-1.287-3.981c.254-1.733.013-2.047-2.814-3.525-4.126-2.154-5.793-1.529-5.92,2.2-.051,1.429-.19,4.021-.3,5.764-.564,8.709-.57,8.72,2.016,10.774,5.558,4.412,6,4.978,6.9,8.873a34.505,34.505,0,0,1,.849,6.078,15.329,15.329,0,0,0,1.648,5.527c2.117,4.183,2.206,7.428.216,7.967-2.092.558-2.89.488-3.385-.317-.437-.7-2.18-8.778-3.41-15.686-.691-3.91-1.616-5.121-6.04-7.985-3.511-2.271-5.21-4.047-5.032-5.248.07-.435.158-1.348.2-2.02a3.688,3.688,0,0,1,.951-2.08c.564-.565.843-2.341.83-5.07-.025-4.189-.013-4.181-2.44-5.546-2.706-1.524-3.7-2.959-3.7-5.367,0-1.306.311-1.624,1.565-1.624,2.345,0,3.144-2.019,1.584-4a5.883,5.883,0,0,1-1.249-2.3c0-.834,2.972-2.137,4.7-2.06,1.521.068,4.811,3.184,4.811,4.555a4.536,4.536,0,0,0,1.464,2.417l1.445,1.366.856-2.3c1.413-3.914,3.987-7.164,6.059-7.645A11.857,11.857,0,0,1,1461.555,874.776Z" transform="translate(-166.739 -277.435)" fill="currentColor"/>
    </a><a xlink:href="/nb"><path id="CA-NB" d="M2015.3,1086.154c-1.439-.368-3.175-2.339-4.215-4.779a3.868,3.868,0,0,0-2.155-2.1c-2.567-.646-6.629-11.224-6.674-17.379-.013-2.11-.38-3.2-1.432-4.189-2.465-2.339-5.78-4.044-7.853-4.05h-2l-.247-3.961a22.8,22.8,0,0,1-.019-4.437c.127-.26,1.99-.494,4.151-.526,4.658-.057,7.25-.913,9.887-3.277a18.428,18.428,0,0,1,6.661-3.036c4.379-1.2,4.886-1.223,7.079-.311,2.256.944,2.421.925,3.625-.361,2.573-2.763,9.976-4.963,9.919-2.947a6.978,6.978,0,0,1-.925,2.377c-1.344,2.345-1.21,7.739.235,9.583a10.636,10.636,0,0,1,1.641,3.6,11.817,11.817,0,0,0,3.4,4.912c2.827,2.706,3.1,2.82,6.813,2.82a14.61,14.61,0,0,1,4.234.368c.2.2-1.058,1.838-2.8,3.644a30.649,30.649,0,0,0-4.772,6.661c-2.256,4.76-10.185,12.777-12.638,12.777a2.417,2.417,0,0,0-2.6,1.775C2023.462,1085.906,2019.311,1087.174,2015.3,1086.154Z" transform="translate(-373.326 -375.643)" fill="currentColor"/>
    </a><a xlink:href="/nl"><g id="CA-NL" transform="translate(1593.67 454.398)">
      <path id="Path_4" data-name="Path 4" d="M2140.381,962.9c-1.749-2.231-1.705-4.935.133-7.445,1.952-2.664,2.167-5.9.431-6.452-1.635-.518-1.61-1.839.07-4.563,1.2-1.947,1.305-2.756.932-7.68a175.545,175.545,0,0,1,.577-29.588c.07-.7.342-3.541.608-6.319.564-5.858,1.73-7.99,6.287-11.465,2.485-1.9,3.15-2.151,3.949-1.486,2.377,1.972,2.865,4.224,2.579,11.953a56.743,56.743,0,0,1-.621,8.063,22.2,22.2,0,0,0-.76,4.346l-.406,3.781,1.6-1.9a9.645,9.645,0,0,0,1.629-2.334c.051-.951,2.681-1.19,4.779-.432,2.351.85,2.408.966,2.231,4.193l-.108,2.06h3.175c1.75,0,3.334-.246,3.524-.547a9.788,9.788,0,0,1,3.359-1.383,49.118,49.118,0,0,0,6.2-2.3c3.15-1.454,6-1.5,8.632-.148,1.375.71,2,4.114,1.033,5.662-.646,1.031-.564,1.444.488,2.5,1.09,1.086,1.7,1.191,4.456.756,4.05-.64,4.722-.4,4.722,1.712,0,1.8-1.306,4.09-3.391,5.951-.678.61-.913,1.109-.507,1.109s.729.953.729,2.166a11.463,11.463,0,0,0,.387,3.169c.443,1.16,1.515,1.351,1.515.27,0-1.176,3.15-4.971,4.126-4.971.494,0,1.236,1.136,1.654,2.535.862,2.886,1.73,3.115,4.379,1.154,1.026-.759,2.085-1.162,2.351-.894s.545,2.386.627,4.708.2,5.285.253,6.585c.152,3.413-2.421,7.128-5.076,7.33-1.591.122-2.143-.169-2.719-1.443-.913-2-1.363-2-2.427-.011-1.724,3.221-3.137,1.225-3.892-5.49-.545-4.917-1.268-6.868-2.522-6.868-.3,0-.558,1.043-.558,2.317,0,1.872-.482,2.772-2.491,4.688-2.256,2.146-2.554,2.809-3.131,6.981-.856,6.131-2.37,7.766-7.345,7.893-4.291.114-4.614-.906-1.293-4.044,1.806-1.706,2.218-2.555,2.218-4.6,0-2.364-.076-2.465-1.356-1.78-2.4,1.286-5.165,1.859-5.919,1.228s-1.844-.146-8.214,3.676a20.958,20.958,0,0,1-5.254,2.377c-.963.153-2.732.442-3.929.644a66.566,66.566,0,0,0-8.556,2.922c-3.511,1.407-6.706,2.681-7.1,2.839S2141.122,963.84,2140.381,962.9Z" transform="translate(-2021.372 -776.411)" fill="currentColor"/>
      <path id="Path_5" data-name="Path 5" d="M1993.575,853.09a12.9,12.9,0,0,0-2.617-.508,7.985,7.985,0,0,1-3.632-1.423c-.97-.875-1.984-1.039-4.874-.788-4.639.4-5.121.208-5.577-2.245a48.746,48.746,0,0,1-.881-5.3,3.6,3.6,0,0,0-1.027-1.719c-.875-.875-1.172-.848-3.01.269a8.432,8.432,0,0,1-3.359,1.245c-1.61,0-3.834-2.209-2.839-2.824.729-.447.894-4.217.3-6.458-.228-.852-1.356-1.744-3-2.384-4.671-1.811-9.6-9.469-8.011-12.445.368-.681.951-1.238,1.293-1.238.653,0,1.762-2.432,2.091-4.6a4.318,4.318,0,0,1,1.534-2.291,7.293,7.293,0,0,0,1.971-2.719c.6-1.61.748-1.658,3.359-1.087a14.789,14.789,0,0,1,4.316,1.688,3.973,3.973,0,0,0,6.034-1.208c1.2-1.837,1.388-1.9,4.424-1.474a36.373,36.373,0,0,0,4.291.4c.906-.036,1.071.371.875,2.156a7.428,7.428,0,0,1-.488,2.364c-2.814,1.892-4.982,3.829-5.267,4.707a6.407,6.407,0,0,1-2.256,2.377c-2.231,1.484-2.364,2.244-.666,3.78,1.521,1.374,5.26.891,6.5-.839a6.9,6.9,0,0,1,6.978-2.517c2.991.908,5.286-.167,6.6-3.095,1.115-2.47,1.242-5.75.266-6.726-.311-.315-1.122.019-1.882.778a5.012,5.012,0,0,1-3.5,1.331c-4.772,0-5.2-1.268-2.269-6.756a16.364,16.364,0,0,0,1.9-5.006c0-1.914-2.1-6.732-3.4-7.814a2.944,2.944,0,0,1-1.039-1.9c0-1.768-3.163-7.278-5.216-9.075a7.218,7.218,0,0,1-2.427-4.437c-.266-1.5-.811-4.58-1.217-6.846a60.374,60.374,0,0,1-.767-8.239c-.044-4.773-1.229-7.325-3.625-7.839a14.578,14.578,0,0,1-3.7-1.634c-2.294-1.427-2.668-3.32-1.109-5.549a2.793,2.793,0,0,0,.406-2.835c-.564-1.512-.539-2.1.209-5.515.482-2.183.127-2.313-5.641-2.068-1.369.058-2.339-.046-2.155-.231s-.146-2.4-.735-4.921c-.843-3.594-1.344-4.623-2.307-4.768a3.159,3.159,0,0,1-1.927-1.3c-.9-1.444-3.511-10.949-3.118-11.345.665-.663,8.036,5.871,10.6,9.4,1.5,2.064,3.22,3.751,3.815,3.751a4.235,4.235,0,0,1,2.4,1.857,14.233,14.233,0,0,0,3.454,3.173,9.618,9.618,0,0,1,3.492,4.481c.875,2.035,1.749,3.167,2.453,3.172.6,0,1.7.963,2.465,2.129a4.829,4.829,0,0,0,3.948,2.533c2.225.356,2.77.781,3.974,3.1a19.775,19.775,0,0,1,1.756,5.2c.329,2.356.539,2.566,3.277,3.339a10.442,10.442,0,0,1,4.006,2.019c.982,1.088,1,1.47.152,4.311-.773,2.618-.786,3.364-.076,4.656a14.124,14.124,0,0,1,1.179,3.123c.285,1.37,1.255,1.906,7.168,3.962a58.877,58.877,0,0,0,7.967,2.377c.621,0,2.225,1.182,3.562,2.627l2.427,2.628,5.628.26a34.849,34.849,0,0,1,8.036,1.181c2.465.947,4.012.6,5.938-1.33.608-.605,1.768-.5,5.406.494,2.542.7,4.8,1.534,5.007,1.863.817,1.286-.241,3.606-1.978,4.323a22.25,22.25,0,0,0-5.159,4.566c-1.863,2.106-4.24,4.735-5.286,5.843s-3.232,3.425-4.861,5.149c-3.029,3.205-4.436,7.01-2.814,7.631,1.344.517,7.865-6.35,8.322-8.765.279-1.5,1.876-3.724,5.267-7.34,4.392-4.69,5.089-5.188,7.213-5.188,1.952,0,2.6.36,3.8,2.1,1.217,1.756,1.711,2.026,3.036,1.648,2.979-.849,6.135-.6,7.675.6a55.63,55.63,0,0,0,5.317,3.28c2.091,1.155,3.885,2.156,3.986,2.223a4.325,4.325,0,0,1-.577,1.788c-1.071,2.343.184,6.169,2.909,8.893,2.079,2.079,4.772,6.591,4.772,7.991,0,1.045-4.316,7.649-6.5,9.944l-1.927,2.027-2.586-3.294a35.928,35.928,0,0,0-3.194-3.722c-.336-.235-1.629.083-2.871.706a31.086,31.086,0,0,1-5.578,1.916,76.114,76.114,0,0,0-7.922,2.551c-2.529.973-7.738,2.957-11.573,4.408s-8.334,3.205-10,3.9c-6.04,2.514-19.216,7.067-21.688,7.5-2.053.358-3.2.115-6.065-1.29-1.939-.953-3.822-1.54-4.177-1.306s-.691,1.567-.735,2.961c-.1,3.129-.786,8.787-1.1,9.116A7.812,7.812,0,0,1,1993.575,853.09Z" transform="translate(-1953.347 -712.182)" fill="currentColor"/>
    </g>
    </a><a xlink:href="/ns"><g id="CA-NS" transform="translate(1655.91 657.095)">
      <path id="Path_6" data-name="Path 6" d="M2059.225,1120.032c-3.7-.8-5.508-2.9-7-8.144-.735-2.567-.855-4.05-.418-5.2.932-2.446,5.127-8.639,7.884-11.63,1.35-1.47,2.84-3.22,3.309-3.891a4.884,4.884,0,0,1,2.446-1.61c1.807-.456,7.308-4.164,7.308-4.925,0-.659-2.846.444-6.217,2.415-5.856,3.416-5.039-2.136,1.4-9.45,2.827-3.213,3.5-3.657,5.451-3.594,6.034.19,12.822-.887,15.033-2.389,1.375-.932,2.643-1.356,3.27-1.084a15.844,15.844,0,0,0,3.961.545c3.34.12,5.977,1.591,7.041,3.917.672,1.483.444,1.876-3.359,5.672-2.244,2.244-4.512,4.532-5.032,5.083-2.25,2.383-7.827,6.629-9.139,6.959-.837.209-2.187,1.661-3.271,3.517-1.7,2.9-2.015,3.131-3.834,2.858-1.635-.241-2.1-.025-2.694,1.268a8.1,8.1,0,0,0-.71,2.212,37.716,37.716,0,0,1-1.908,5.229,25.009,25.009,0,0,1-6.053,8.829c-2.281,2.332-4.2,4.208-4.271,4.158S2060.911,1120.393,2059.225,1120.032Z" transform="translate(-2051.55 -1046.082)" fill="currentColor"/>
      <path id="Path_7" data-name="Path 7" d="M2127.155,1057.808c-.532-.425-2.351-2.269-4.043-4.094-2.256-2.44-2.909-3.536-2.427-4.12a45.557,45.557,0,0,0,2.6-6.667c2.18-6.541,4.24-10.927,5.121-10.927,1.122,0,2.561,2.833,2.567,5.051.019,3.613.615,4.95,2.427,5.4,2.212.545,5.172,3.4,5.172,4.982a12.7,12.7,0,0,1-1.965,4.316c-1.432,2.225-2.377,3.068-3.448,3.068a3.935,3.935,0,0,0-2.827,1.9C2128.834,1058.828,2128.549,1058.923,2127.155,1057.808Z" transform="translate(-2076.813 -1032)" fill="currentColor"/>
    </g>
    </a><a xlink:href="/nt"><g id="CA-NT" transform="translate(1066.904 115.365)">
      <path id="Path_8" data-name="Path 8" d="M1153.8,374.249a40.249,40.249,0,0,0-4.83.456c-3.4.428-6.566.91-7.035,1.089-.608.233-.76,1.183-.532,3.386.368,3.568-.444,4.5-1.939,2.218-.577-.882-1.255-1.6-1.489-1.6-1.052,0-10.267,16.674-12.08,21.866a54.033,54.033,0,0,1-2.909,7.11c-1.458,2.232-1.109,2.865,3.068,5.7,8.879,6.029,9.12,6.634,5.47,14.121a30.818,30.818,0,0,0-2.637,7.408c-.285,2.476-.133,2.792,2.161,4.634,1.35,1.088,2.339,2.2,2.174,2.456a19.21,19.21,0,0,0-.45,4.139c-.158,3.913-.913,5.2-3.467,5.843-1.794.45-2.8,1.989-2.8,4.318,0,.894-.266,1.624-.577,1.624s-.735.747-.97,1.664a2.891,2.891,0,0,0,.875,3.05,5.729,5.729,0,0,1,1.306,4.2,15.461,15.461,0,0,0,1.527,5.942c1.046,2.161,1.42,3.786,1.185,5.208a7.352,7.352,0,0,0,.97,4.575c1.286,2.463,1.28,2.557.158,6.259a105.272,105.272,0,0,0-3.467,18.855,44.21,44.21,0,0,1-.71,5.724,3.208,3.208,0,0,0,.989,2.852c1.686,1.94,2.706,4.347,3.765,8.853.951,4.056,2.174,6.715,4,8.715l1.306,1.426-1.363,1.466a5.424,5.424,0,0,0-1.388,3.842,9.522,9.522,0,0,1-.672,3.625c-.6,1.122-.266,1.435,3.327,3.07a53.155,53.155,0,0,1,6.433,3.486c1.933,1.317,2.884,1.569,4.595,1.247,2.567-.481,2.389-1.131,2.44,9.151l.038,7.823,6.972,2.812a773.918,773.918,0,0,0,75.1,25.589c7.491,2.136,17.765,5.128,22.816,6.655s10.046,2.945,11.091,3.13,6.179,1.195,11.408,2.258,10.293,2.068,11.25,2.238,4.665.9,8.239,1.6,7.352,1.422,8.4,1.6,5.894,1.151,10.774,2.139c9.995,2.023,13.595,2.317,13.665,1.129a19.069,19.069,0,0,1,.279-1.981c.127-.658.406-3.653.634-6.655s.526-6.179.653-7.051.393-3.438.6-5.7c.577-6.47,1.572-16.8,1.92-19.964.114-1.046.406-4.468.634-7.605s.526-6.132.653-6.655.4-3.375.615-6.338.672-7.746,1.008-10.636a24.736,24.736,0,0,0,.279-5.823,98.021,98.021,0,0,0-9.367-5.268c-10.5-5.5-21.27-11.2-29.275-15.489l-5.641-3.03-3.9-6.338-3.9-6.338-7.168-1.525-7.168-1.545-6.141-8.279c-3.378-4.561-8.708-11.864-11.846-16.221s-9.329-12.867-13.76-18.915-8.493-11.672-9.031-12.5c-.919-1.4-.837-1.893,1.242-7.388,7.821-20.668,7.808-20.564,3.866-25.727a15.153,15.153,0,0,1-2.18-3.387.627.627,0,0,0-.691-.535,6.606,6.606,0,0,1-2.377-1.188,10.907,10.907,0,0,0-4.221-1.486c-2.168-.254-2.909.019-5.146,1.842-2.263,1.839-2.846,2.03-4.278,1.485-2.123-.8-2.092-1.278.215-3.486,1.033-.99,1.686-2.113,1.445-2.5a12.689,12.689,0,0,1-.456-3.981c-.025-5.49-.881-5.494-6.4.02a63.885,63.885,0,0,1-5.153,4.852,6.729,6.729,0,0,1-2.491-2.654c-.044-.286-.12-4.18-.158-8.656-.082-8.072-.108-8.144-1.7-8.873-2.275-1.036-3.327-.927-5.21.555-1.217.957-2.427,1.271-4.677,1.169-2.053-.094-2.852-.372-2.491-.832a7.283,7.283,0,0,0,.849-2.456c.285-1.591.013-1.925-2.611-3.248-2.941-1.48-7.574-1.8-11.491-.812a78.94,78.94,0,0,1-8.239.773c-4.849.278-6.775.637-7.149,1.307a3.051,3.051,0,0,1-2.4.911c-1.775,0-1.857-.136-1.863-2.694C1156.288,375.3,1156.174,374.29,1153.8,374.249Zm52.509,88.829c16.479.06,17.8.288,17.8,2.931,0,.619-1.356,2.259-3.01,3.665q-3.014,2.553-2.377,3.189c.754.751,9.488,4.281,13.823,5.585,2.979.9,3.036.977,2.618,2.952-.469,2.181-1.369,3.6-2.282,3.6a12.427,12.427,0,0,0-3.048,1.644l-2.5,1.644-3.663-1.7c-2.022-.936-4.215-1.988-4.868-2.337-1.591-.846-2.5.2-3.847,4.357-1.28,3.955-1.521,4.163-6.515,5.842a34.822,34.822,0,0,1-4.595,1.327c-1.192,0-.672-1.83,1.109-3.942,3.714-4.392,3.663-4.3,1.527-4.3a6.651,6.651,0,0,0-3.841,1.624c-3.125,2.626-5.5,3.012-8.36,1.366a8.772,8.772,0,0,1-3.15-2.991c-.678-1.481-.444-1.851,3.746-5.843a37.916,37.916,0,0,1,7.289-5.6c1.54-.725,2.934-1.845,3.106-2.5.482-1.83-2.053-3.8-4.969-3.862a28.406,28.406,0,0,1-6.56-1.426c-3.334-1.126-4.107-1.648-4.3-2.911a2.207,2.207,0,0,1,.456-1.961C1190.284,463.2,1197.668,463.047,1206.313,463.078Zm21.549,81.5a11.44,11.44,0,0,1,2.573,2.912,36.39,36.39,0,0,0,4.316,4.912,39.146,39.146,0,0,1,7.485,8.5c1.255,2.072,1.927,2.472,5.628,3.407,3.93.991,4.462,1,7.922.02,2.5-.707,4.158-1.628,5.089-2.812,1.927-2.451,4.3-3.515,8.3-3.743,3.4-.195,3.429-.175,3.308,1.564-.171,2.534-2.681,5.371-5.425,6.16a15.488,15.488,0,0,0-5.07,3.288,29.152,29.152,0,0,1-6.813,4.456c-2.263,1.029-5.2,2.447-6.534,3.149a7.4,7.4,0,0,1-4.025.97c-1.135-.218-2.187.2-3.6,1.446a19.681,19.681,0,0,1-4.455,2.773,11.007,11.007,0,0,1-4.12.891c-11.706-1.049-12.809-1.449-18.405-6.655-5.039-4.688-4.988-5.882.279-5.882a14.15,14.15,0,0,1,4.772.653c1.439.77,3.169.043,5.844-2.456a4.651,4.651,0,0,1,4.3-1.446c2.909.21,4.4-.709,4.4-2.733,0-1.885-2.58-9.318-4.874-14.023Q1226.144,544.585,1227.862,544.58Z" transform="translate(-1122.208 -249.393)" fill="currentColor"/>
      <path id="Path_9" data-name="Path 9" d="M1374.447,411.507c-4.532-1.32-11.662-3.423-15.845-4.672s-9.887-2.916-12.676-3.7c-4.766-1.346-4.937-1.453-2.852-1.789a72.213,72.213,0,0,1,9.19-.082c5.647.223,7.523.552,9.868,1.735,2.909,1.465,10.654,3.744,11.123,3.274.139-.138-1.451-1.875-3.536-3.86-3.955-3.777-7.022-5.457-9.989-5.478-2.25-.016-12.232-2.618-16.269-4.242-2.941-1.181-3.163-1.441-4.272-4.992a33.616,33.616,0,0,1-1.179-4.512c-.006-.69,2.96-1.742,11.4-4.044l2.852-.778-2.218-.511a36.651,36.651,0,0,0-4.018-.672c-1.927-.173-3.974-3.033-3.34-4.677a1.187,1.187,0,0,0-.45-1.369,9.542,9.542,0,0,1-1.914-2.275c-1.5-2.351-.951-4.679,1.781-7.569,2.51-2.664,3.5-4.371,3.5-6.015,0-3.22,9.4-8.347,18.786-10.245,3.441-.7,7.567-1.439,9.184-1.652,2.82-.373,2.96-.316,3.587,1.5.792,2.259.089,5.9-1.844,9.612-.742,1.422-1.179,2.756-.97,2.965s1.673-.681,3.258-1.978l2.877-2.358,3.948,2.261a49.518,49.518,0,0,1,5.495,3.569l1.534,1.309-1.286,3.047-1.287,3.047,2.6-.582a10.3,10.3,0,0,0,3.03-1.021c.228-.241,0-1.679-.52-3.194a9.9,9.9,0,0,1-.741-2.886c2.694-1.733,3.676-2.183,3.917-1.79.349.56-13.43,56.04-14.057,56.635C1382.876,413.727,1378.978,412.828,1374.447,411.507Z" transform="translate(-1201.237 -238.019)" fill="currentColor"/>
      <path id="Path_10" data-name="Path 10" d="M1291.6,347.262c-.158-.473-.577-3.32-.925-6.327-.577-4.985-.944-5.984-4.151-11.331a43.234,43.234,0,0,1-3.5-6.576c.019-.989,1.9-3.134,3.79-4.328.875-.551,3.15-3.527,5.064-6.614a71.123,71.123,0,0,1,4.677-6.881c.659-.7,3.3-4.069,5.869-7.492,4.468-5.955,4.677-6.381,4.747-9.824.038-1.98.019-3.984-.044-4.454-.152-1.135,1.794-3.243,2.719-2.941a24.8,24.8,0,0,0,3.08.517,28.845,28.845,0,0,1,5.7,1.609,57.774,57.774,0,0,0,6.008,1.988c2.168.537,2.776,1.03,3.353,2.7a21.049,21.049,0,0,0,4.12,5.5c3.4,3.441,3.429,3.456,7.1,3.359,5.172-.137,5.875.637,8.829,9.691,3.746,11.508,3.251,12.678-6.351,15-4.411,1.066-8.791,2.974-9.881,4.306a9.306,9.306,0,0,1-2.25,1.168,14.2,14.2,0,0,0-3.492,2.182c-.856.77-3.467,2.827-5.812,4.57a18.751,18.751,0,0,0-6.528,7.442c-1.242,2.35-2.89,4.608-3.657,5.019s-1.394.659-1.394.554c0-.176-.76-.037-5.387.982-.868.192-3.79.5-6.49.691C1293,348.045,1291.83,347.929,1291.6,347.262Z" transform="translate(-1181.099 -215.049)" fill="currentColor"/>
      <path id="Path_11" data-name="Path 11" d="M1404.065,285.683c-1.61-1.77-2.928-3.734-2.928-4.364,0-1.57,2.5-3.076,6.49-3.906,6.408-1.335,8.29-3.407,3.087-3.407-2.1,0-2.928-.334-3.86-1.568-1.141-1.508-1.23-1.526-2.421-.451a7.329,7.329,0,0,1-6.915.83c-1.844-1.016-7.739-8.043-8.195-9.77-.412-1.571,1.223-3.936,2.725-3.936.463,0,.868-.214.9-.475a6.647,6.647,0,0,1,2.123-4.548,5.726,5.726,0,0,0,1.629-2.948c0-1.689,3.619-5.972,5.045-5.972a3.377,3.377,0,0,0,2.187-1.584c.868-1.329,1.534-1.584,4.107-1.584,4.063,0,6.408,1.752,6.408,4.79,0,1.805.4,2.429,2.421,3.767,3.245,2.147,4.753,5.362,4.874,10.386.1,4.445,1.033,5.767,4.075,5.785,3.125.019,3.175.449,1.1,9.022-1.426,5.9-2.212,8.081-2.909,8.081-.526,0-2.579,1.141-4.57,2.535-3.378,2.37-3.9,2.535-8.03,2.535h-4.417Z" transform="translate(-1220.005 -200.962)" fill="currentColor"/>
      <path id="Path_12" data-name="Path 12" d="M1380.627,260.008c-.6-.158-1.382-1.33-1.743-2.62-.875-3.154.444-4.852,5.318-6.831,4.234-1.719,5.641-1.876,6.541-.731,1.154,1.465.6,3.114-1.616,4.81-1.21.927-3.219,2.612-4.462,3.746a10.661,10.661,0,0,1-2.6,1.986C1381.87,260.328,1381.229,260.166,1380.627,260.008Z" transform="translate(-1216.114 -203.559)" fill="currentColor"/>
      <path id="Path_13" data-name="Path 13" d="M1366.556,233.394a4.125,4.125,0,0,1-1-2.535c0-1.443-.215-1.539-3.486-1.539-5.634,0-7.447-2.766-4.595-7a6.449,6.449,0,0,1,4.284-2.842,29.777,29.777,0,0,0,5.907-2.429c1.673-.935,3.283-1.551,3.574-1.37s2.592-1.6,5.1-3.95c5.818-5.457,6.788-5.946,11.579-5.84a39.5,39.5,0,0,0,5.52-.2c1.876-.337,4.753.974,5.311,2.42a6.806,6.806,0,0,1-3.169,8.4c-.678.38-1.153,1.719-1.356,3.826-.292,3.035-.488,3.344-3.074,4.859a11.275,11.275,0,0,0-3.4,2.823c-.843,1.574-3,2.23-4.164,1.265-1.4-1.162-1.179-5.47.349-6.776a3.849,3.849,0,0,0,1.268-1.572c0-.771-2.326,1.276-8.613,7.581C1370.491,234.642,1368.685,235.52,1366.556,233.394Z" transform="translate(-1207.879 -187.648)" fill="currentColor"/>
      <path id="Path_14" data-name="Path 14" d="M1444.508,211.408c-2.053-.919-2.776-1.74-3.9-4.464a20.293,20.293,0,0,1-1.388-4.2,2.6,2.6,0,0,0-1.306-1.659C1434.5,199,1433.05,193,1435.959,193c1.3,0,3.258,1.885,3.258,3.132,0,.59.564.688,2.06.356,2.681-.6,13.665-1.136,14.736-.723.653.248.7.927.209,3.055-.349,1.5-.742,3.306-.881,4-.944,4.805-1.806,7.325-2.82,8.246C1450.853,212.578,1447.443,212.722,1444.508,211.408Z" transform="translate(-1236.536 -183.018)" fill="currentColor"/>
      <path id="Path_15" data-name="Path 15" d="M1462.268,187.309c0-.306-.837-.9-1.857-1.325a9.832,9.832,0,0,1-2.972-2,2.593,2.593,0,0,0-2.833-.856c-.951.208-1.908.084-2.13-.275-.97-1.572,3.809-5.764,5.432-4.762a1.551,1.551,0,0,0,1.54-.391c.8-.665,5.666-.562,6.281.133.551.619-1.939,10.035-2.649,10.035C1462.635,187.866,1462.268,187.616,1462.268,187.309Z" transform="translate(-1243.109 -177.25)" fill="currentColor"/>
    </g>
    </a><a xlink:href="/nu"><g id="CA-NU" transform="translate(1176.411 8.263)">
      <path id="Path_16" data-name="Path 16" d="M1422.889,450.45c-3.106-.747-7.776-3.448-11.129-6.441a20.575,20.575,0,0,0-4.386-2.79c-1.4-.632-2.586-1.533-2.624-2s-.12-1.211-.158-1.647c-.146-1.416-2.782-1.311-3.239.129-.6,1.877-3.8,3.316-8.2,3.687-2.1.176-4.177.686-4.62,1.133-1.882,1.882-5.33,2.342-14.381,1.919-13.468-.63-17.461-1.325-17.531-3.049-.019-.444-.152-1.949-.292-3.343s-.393-4.215-.551-6.268c-.33-4.3-1.483-5.835-4.817-6.412-3.777-.655-11.421-6.018-11.421-8.017a5.741,5.741,0,0,0-.1-1.01c-.057-.262-.621-2.757-1.255-5.546s-1.154-5.264-1.16-5.5c-.019-.48.12-.44,27.462,7.684,10.755,3.2,19.654,5.714,19.774,5.593s3.391-12.9,7.257-28.4,7.181-28.6,7.358-29.125,1.458,1.9,2.846,5.387c2.453,6.156,2.516,6.505,2.256,12.5-.311,7.248.393,9.177,2.561,7.01,1.09-1.092,1.242-1.947,1.071-5.959-.114-2.576-.336-8.22-.494-12.543l-.292-7.86,2.009-2.1c1.876-1.965,2.174-2.067,4.487-1.534a8.253,8.253,0,0,1,3.993,2.358c1.47,1.727,1.489,1.731.513.122a17.834,17.834,0,0,1-1.553-3.561c-.767-2.688,1.249-4.977,5.026-5.7,3.384-.646,5.888.515,8.512,3.947,2.383,3.128,1.775,5.767-2.592,11.168l-3.473,4.3.146,7.941c.165,8.9.754,14.107,2,17.817.773,2.3.716,2.787-.684,5.895-1.1,2.454-1.42,4.014-1.154,5.67.57,3.488,4.551,8.693,10.369,13.552,6.705,5.6,9.076,9.879,7.682,13.875-.659,1.888-.7,1.9-4.24,1.5a12.376,12.376,0,0,1-4.177-.973,2.3,2.3,0,0,0-1.356-.572c-1.667,0-1.388,2.09.7,5.368,3.5,5.461,2.8,8.874-2.326,11.287C1428.3,451.084,1426.108,451.225,1422.889,450.45Z" transform="translate(-1310.385 -133.042)" fill="currentColor"/>
      <path id="Path_17" data-name="Path 17" d="M1748.872,958.993c-3.251-1.3-3.872-1.8-3.872-3.087,0-1.738.349-1.913,4.715-2.387,2.916-.316,3.251-.2,4.937,1.688,2.332,2.608,2.218,5.124-.234,5.25A19.021,19.021,0,0,1,1748.872,958.993Z" transform="translate(-1459.789 -354.377)" fill="currentColor"/>
      <path id="Path_18" data-name="Path 18" d="M1451.491,643.207a36.446,36.446,0,0,0-5.337-.694,53.238,53.238,0,0,1-5.387-.633,52.936,52.936,0,0,0-5.387-.634c-2.789-.247-5.21-.531-5.387-.631a38.853,38.853,0,0,0-4.437-.593c-2.263-.227-5.406-.556-6.972-.731-5.964-.667-8.131-.893-15.211-1.586-7.365-.721-8.474-.963-8-1.744a51.623,51.623,0,0,0,.716-6.453c.247-3.312.526-6.449.627-6.972s.368-3.375.6-6.338.532-6.1.678-6.972.425-3.581.621-6.021c.431-5.3.887-10.371,1.293-14.26.165-1.569.431-4.278.589-6.021,1.033-11.416,1.293-14.1,1.952-20.281.222-2.091.45-4.456.507-5.254.082-1.2-.767-1.913-4.969-4.146-6.42-3.412-18.164-9.618-27.57-14.566-4.005-2.109-8.429-4.457-9.824-5.218-2.453-1.337-3.758-2.986-8.626-10.862l-2.282-3.7-7.238-1.519-7.238-1.519-3.524-4.81c-1.939-2.646-9.336-12.8-16.428-22.557s-14.558-20.007-16.58-22.77a34.008,34.008,0,0,1-3.689-5.7c0-.616,8.189-23.211,8.6-23.706.76-.925,6.9,4.614,9.393,8.474a28.02,28.02,0,0,0,9.342,7.906,2.921,2.921,0,0,0,3.055.013c1.211-.648,1.743-.451,4.164,1.536a26.376,26.376,0,0,1,3.993,4c1.5,2.131,3.923,7.585,3.923,8.824,0,1.63-1.629,2.606-5.077,3.044s-6.332,1.823-6.332,3.043a8.623,8.623,0,0,0,1.394,2.718c1.192,1.733,2.351,2.328,7.764,3.977,10.007,3.048,11.928,3.352,16.529,2.616a30.621,30.621,0,0,0,5.774-1.419c1.508-.688,1.781-.608,2.694.787.564.854,2.732,3.8,4.823,6.548,4.944,6.5,6.579,9.667,6.236,12.114-.2,1.463-.108,1.7.38.986.4-.589.5-3.407.266-7.411l-.387-6.461,6.693-3.328c3.847-1.911,6.813-3.792,6.978-4.417.266-1.024.127-1.022-2.339.029a49.666,49.666,0,0,1-5.951,1.969c-3.1.791-3.448.761-5.07-.449-4.278-3.195-.666-9.25,5.767-9.667a28.7,28.7,0,0,0,5.7-1.23,15.3,15.3,0,0,1,5.026-.854c2.1.26,3.822,2.626,3.968,5.427a12.146,12.146,0,0,0,1.2,4.121c1.584,3.049,6.42,7.683,8.113,7.768a16.189,16.189,0,0,1,2.079.221c.349.081.957.191,1.35.244s1.9,1.91,3.346,4.127l2.624,4.032,3.879.4c2.136.223,5.767.406,8.068.406a37.9,37.9,0,0,1,8.62,1.268l4.437,1.268.127-2.311a18.268,18.268,0,0,1,1.109-4.766,14.062,14.062,0,0,0,.982-4.113c0-1.605.089-1.645,2.915-1.258a38.222,38.222,0,0,1,11.839,3.968c1.819.914,3.41,1.749,3.53,1.857.171.155-2.142,8.813-3.422,12.823-.146.447.412,1.068,1.236,1.381a5.036,5.036,0,0,1,2.294,2.673l.8,2.1.431-1.9a5.644,5.644,0,0,0-.539-3.8,16.8,16.8,0,0,1-.995-6.2c-.025-4.551.608-5.653,2.915-5.05,2.263.591,6.724-1.673,8.759-4.445,1.61-2.185,1.927-3.206,1.927-6.2,0-2.775-.285-3.838-1.268-4.727-1.458-1.319-1.768-5.9-.488-7.181,1.084-1.084-2.814-4.6-6.42-5.792-2.18-.718-3.15-1.574-4.925-4.352-1.889-2.95-2.212-4-2.193-7.148a14.8,14.8,0,0,1,.684-4.937c.52-.972.292-2.11-1.039-5.172l-1.7-3.926,1.223-3.557c1.039-3,1.648-3.787,3.9-5.021,2.44-1.34,2.6-1.591,1.977-2.966-.589-1.294-.387-1.867,1.458-4.144,4.963-6.133,4.506-5.778,6.8-5.312a3.5,3.5,0,0,1,2.852,2.128,13.911,13.911,0,0,0,3.112,3.784c4.316,3.781,4.931,5.117,5.172,11.273.222,5.419.317,5.727,3.46,10.956,3.961,6.581,4.386,10.147,1.071,8.886-1.28-.487-1.375-.371-1.115,1.37a11.947,11.947,0,0,1-.564,4.456c-.792,2.394-.761,2.625.558,3.688,1.16.942,1.794,1.025,3.733.49,2.427-.671,4.557-.273,9.412,1.754,2.009.84,2.231,1.119,1.483,1.85a8.635,8.635,0,0,1-3.733,1.259c-4.462.622-4.792,1.672-1.844,5.961,2.326,3.393,2.846,5.113,3.08,10.207.12,2.694,1.115.114,1.584-4.12.729-6.59,1.584-8.609,4.1-9.658l2.225-.932,4.259,4.661c2.979,3.26,4.462,5.46,4.931,7.318,1.014,3.976.83,6.379-.589,7.8a5.008,5.008,0,0,0-1.268,3.075c0,1.852,1.166,5.865,1.87,6.432a37.1,37.1,0,0,1,2.5,3.644,13.558,13.558,0,0,0,2.529,3.327c.982,0,3.365-2.133,3.872-3.464a28.733,28.733,0,0,0,.925-5.165,21.974,21.974,0,0,1,1.28-5.632,55.341,55.341,0,0,0,2.187-6.372,30.874,30.874,0,0,1,3.188-7.289c2.269-3.344,2.4-4.78.6-6.693-1.508-1.607-3.346-9.218-2.719-11.277.824-2.7,2.187-3.545,5.749-3.545a13.079,13.079,0,0,1,6.965,1.9,16.843,16.843,0,0,0,4.823,1.9c.7,0,2.174.968,3.3,2.152a20.935,20.935,0,0,0,4.779,3.557c2.668,1.361,5,3.523,5.045,4.679.006.31-.45.907-1.027,1.327-.957.7-.932.915.285,2.6a12,12,0,0,1,1.73,4.138c.38,2.13.272,2.343-1.5,2.96a5.339,5.339,0,0,0-2.611,1.982,2.539,2.539,0,0,1-1.952,1.318c-1.68,0-1.566,1.21.329,3.411a10.064,10.064,0,0,1,1.965,3.922,5.437,5.437,0,0,0,2.459,3.514c4.494,3.076,4.494,9.436.006,17.1-5.3,9.075-5.672,9.476-8.436,9.208a10.822,10.822,0,0,1-4.12-1.338l-1.679-1.1.995,2.382c1.1,2.645.412,3.778-1.87,3.066-2.351-.733-3.27-.7-4.259.17-.868.752-1.331.747-3.169-.03a8.444,8.444,0,0,1-3.112-2.256c-.8-1.134-1.35-1.278-3.486-.925a15.807,15.807,0,0,0-3.657,1.008c-1.008.528-.881.817,1.166,2.751,2.149,2.023,2.263,2.334,1.844,4.83-.323,1.923-1.4,3.786-3.847,6.673-1.87,2.2-3.581,4.722-3.8,5.6s-.723,1.594-1.122,1.6.089.653,1.084,1.446c1.521,1.219,1.768,1.834,1.61,3.958a10.524,10.524,0,0,1-1.217,4.1c-.558.871-1.578,2.44-2.275,3.486s-2.529,4.106-4.075,6.8c-3.213,5.576-4.246,6.193-10.419,6.193-4.538,0-5.806.916-6.135,4.437-.2,2.183-.253,2.218-3.061,2.179a27.95,27.95,0,0,1-4.582-.432c-2.542-.575-2.706.481-.336,2.119,1.135.785,2.174,1.508,2.307,1.607.659.5.735,5.527.108,7.431-.843,2.541-3.194,3.765-7.6,3.947-4.975.207-4.741.1-3.676,1.687.9,1.344.818,1.556-1.35,3.666a50.75,50.75,0,0,0-8.632,11.387,17.654,17.654,0,0,1-2.852,4.118c-1.673,1.51-3.175,4.258-3.175,5.807,0,.614-1.477,4.238-3.283,8.055-2.751,5.824-3.264,7.483-3.207,10.324l.07,3.385h-2.706A10.747,10.747,0,0,1,1451.491,643.207Z" transform="translate(-1294.99 -158.771)" fill="currentColor"/>
      <path id="Path_19" data-name="Path 19" d="M1742.443,709.7c-3.378-2.1-3.245-8.287.266-12.084,1.426-1.541,3.036-1.434,5.051.337s1.027,9.13-1.578,11.557C1744.566,711.019,1744.566,711.019,1742.443,709.7Z" transform="translate(-1457.954 -260.318)" fill="currentColor"/>
      <path id="Path_20" data-name="Path 20" d="M1691.781,698.692c-1.47-2.749.608-8.988,3.7-11.1,2.478-1.688,3.169-1.838,8.068-1.728,2.979.067,3.315.229,4.031,1.964s.608,2.169-1.21,5c-2.643,4.116-6.408,6.574-10.6,6.926C1692.935,700,1692.4,699.854,1691.781,698.692Z" transform="translate(-1440.123 -256.4)" fill="currentColor"/>
      <path id="Path_21" data-name="Path 21" d="M1662.228,654.571c-.868-.189-1.109-.9-1.109-3.237,0-1.648-.342-3.338-.76-3.756s-2.345-.789-4.278-.824c-7.485-.134-8.645-1.75-4.494-6.246,2.383-2.583,2.8-3.722,2.694-7.317-.367-12.453.006-16.408,2.478-26.1.773-3.027,1.008-3.315,3.055-3.7,1.933-.363,2.415-.183,3.663,1.382a22.409,22.409,0,0,1,2.554,4.489c.951,2.3,1.382,2.7,3.01,2.728,1.255.024,3.733,1.316,7.289,3.8,2.966,2.068,7.162,4.976,9.336,6.462s3.955,3.131,3.961,3.654a11.432,11.432,0,0,0,1.578,3.486,10.927,10.927,0,0,1,1.584,3.65c.019.969.456,1.065,3.346.733,2.991-.343,3.562-.2,5.666,1.42,2.034,1.565,2.313,2.093,2.123,4.02-.317,3.273-.754,3.982-3.365,5.46-2.364,1.34-2.364,1.34-5.216.106a10.234,10.234,0,0,0-5.178-.932c-1.851.24-2.611,0-3.688-1.145a3.791,3.791,0,0,1-1.16-2.574c.3-1.657-5.413-4.575-6.762-3.456a3.306,3.306,0,0,0-.957,2.259,9.877,9.877,0,0,1-3.042,6.661,41.506,41.506,0,0,0-3.118,3.575c-1.99,2.633-4.462,5.241-5.058,5.337A12.485,12.485,0,0,1,1662.228,654.571Z" transform="translate(-1424.71 -226.148)" fill="currentColor"/>
      <path id="Path_22" data-name="Path 22" d="M1530.2,511.767a22.7,22.7,0,0,1-7.542-4.987,8.066,8.066,0,0,0-2.44-1.763c-1.249-.007-4.215-2.726-4.215-3.869,0-1.593,10.046-15.148,11.231-15.148,1.591,0,7.422,6.144,9.127,9.611,2.573,5.247,4.36,10.208,4.36,12.1,0,1.295-.6,2.121-2.434,3.333C1535.774,512.7,1533.657,512.892,1530.2,511.767Z" transform="translate(-1375.927 -183.216)" fill="currentColor"/>
      <path id="Path_23" data-name="Path 23" d="M1800.9,560.3c-.12-.117-4.139-.381-8.93-.586-6.864-.294-9-.6-10.045-1.451-.729-.592-2.231-1.844-3.34-2.782-1.686-1.431-2.51-1.676-5.134-1.526-3.46.2-5.527-.392-12.156-3.48-3.987-1.856-4.57-2.36-5.3-4.566s-.691-2.547.26-3.08c1.179-.66,1.445-1.8.425-1.8a16.286,16.286,0,0,1-3.8-2.167,19.446,19.446,0,0,0-5.064-2.588,4.26,4.26,0,0,1-2.846-2.219c-1.4-2.706-4.639-4.7-8.214-5.065-2.668-.271-3.359-.1-4.57,1.107-1.033,1.041-2.161,1.426-4.17,1.426-2.332,0-3.163.385-5.469,2.535l-2.719,2.535h-5.254c-8.74,0-10.711-1.6-11.535-9.376-.285-2.7-.133-3.158,1.635-4.845a5.019,5.019,0,0,0,1.952-4.256c0-1.633.355-2.581,1.109-2.983.608-.324,4.493-.631,8.632-.683,6.82-.084,7.707-.231,9.507-1.576,2.814-2.1,5.812-3.535,7.415-3.535,1.122,0,1.293-.256.951-1.426a31.851,31.851,0,0,1-.944-3.718,11.36,11.36,0,0,0-2.662-2.119c-2.453-1.624-2.592-1.874-2.282-4.166a15.477,15.477,0,0,1,1.249-4.219c.507-.979,2.4-4.682,4.2-8.227l3.277-6.446-1.242-4.48c-1.179-4.266-4.88-10.162-8-12.753a18.137,18.137,0,0,1-2.611-3.306,14.457,14.457,0,0,0-4.633-4.128c-2.5-1.386-3.232-2.183-3.657-3.954-.482-1.991-.729-2.2-2.408-2a6.246,6.246,0,0,0-2.827,1.036,23.882,23.882,0,0,1-3.581,2.141c-2.25,1.132-2.738,1.192-3.378.421-1.065-1.279-.216-3.513,2.1-5.541,1.927-1.688,1.946-1.747.723-2.673-1.61-1.216-2.466-1.214-4.83.009q-3.717,1.922-3.714-1.513a2.34,2.34,0,0,1,1.287-2.4c1.2-.535,1.077-.776-1.743-3.527-5.153-5.021-8.068-7.328-8.892-7.039-.437.153-.792,1.252-.792,2.443v2.166l-6.5.149c-3.575.082-8.385.111-10.692.065-3.536-.071-4.183.08-4.12.96.063.9-.672,1.035-5.311.977-2.966-.037-8.379-.286-12.042-.553-4.075-.3-7.536-.242-8.93.146-2.8.78-4.912-.537-6.008-3.751-.615-1.808-.982-2.089-2.554-1.952-7.479.649-7.846.62-9.741-.781-4.2-3.1-7.625-8.04-7.625-11,0-.949.615-1.287,2.941-1.6a49.337,49.337,0,0,1,5.52-.4c2.218,0,2.453-.124,1.654-.868-1.369-1.285-4.874-2.3-7.922-2.3-1.965,0-2.814-.3-3.144-1.109a31.632,31.632,0,0,1-1.87-10.776c.792-13.051,1.039-14.533,3.765-22.461,3.955-11.525,6.889-16.855,10.464-18.984,5.666-3.376,14.844-2.438,15.934,1.629.418,1.577.171,2.206-1.661,4.239a11.4,11.4,0,0,0-2.6,4.8,12.9,12.9,0,0,1-1.395,3.865c-1.147,1.759-2.75,8.362-2.237,9.194a25.088,25.088,0,0,1,.558,5.262c.209,5.214.475,5.96,2.148,5.96.742,0,1.318-.634,1.6-1.743a7.994,7.994,0,0,1,1.47-2.889c.83-.922.881-1.355.266-2.218a11.788,11.788,0,0,1-2.307-7.307c-.032-2.362.253-3.308,1.255-4.12a6.48,6.48,0,0,0,1.724-2.162c.235-.61.716-1.109,1.077-1.109s.653-.577.653-1.283c0-2.261,4.823-9.12,7.46-10.6,2.795-1.574,8.86-2.7,10.755-2,1.141.422,2.212,2.041,6.059,9.127,2.421,4.471,4.215,9.409,3.891,10.71-.456,1.8,1.882,4.819,3.727,4.814a18.651,18.651,0,0,0,3.79-.672c1.984-.551,2.339-.887,2.009-1.913-.685-2.165,3.15-5.286,7.669-6.234,3.575-.751,3.993-.715,6.021.52a9.439,9.439,0,0,0,3.759,1.352c1.977.032,4.772,2.321,5.387,4.416.627,2.138,2.174,3.8,3.53,3.8.8,0,1.23.7,1.54,2.535.234,1.394.678,2.535.976,2.535a21.44,21.44,0,0,1,4.082,3.5c2.9,2.883,3.587,3.3,3.879,2.377.19-.617.754-2.056,1.249-3.2,1-2.291,1.6-2.321,7.092-.363,2.3.82,2.9,1.422,4.044,4.089a9.806,9.806,0,0,0,3.112,4.172,7.638,7.638,0,0,1,2.491,2.393c1.331,2.484,2.877,2.979,4.734,1.515,2.022-1.588,3.562-1.294,7.263,1.39,2.364,1.713,2.668,2.191,2.3,3.663-1.09,4.393-1.135,5.229-.26,5.045a4.792,4.792,0,0,0,1.965-1.927c1.6-2.524,3.543-2.246,6.623.951,2.909,3.022,4.272,5.253,4.36,7.13.171,3.533.368,3.927,2.465,4.929a7.983,7.983,0,0,1,3.175,2.941l.982,1.9-2.9,1.7c-2.383,1.395-3.156,1.576-4.373,1.021-1.965-.9-2.4-.324-1.179,1.543.957,1.464.919,4.084-.1,6.664-.551,1.386,1.572,3.319,4.665,4.246a21.714,21.714,0,0,1,4.9,2.406,11.06,11.06,0,0,0,4.684,1.782,13.511,13.511,0,0,1,3.8.763,15.224,15.224,0,0,0,5.26.384l3.67-.278,3.4,3.54c2.985,3.1,3.72,3.55,5.989,3.62,1.426.044,2.935.115,3.359.158s.957,1.02,1.191,2.171a7.63,7.63,0,0,0,.843,2.5c.228.227,2.4-.274,4.817-1.114l4.4-1.526,2.389,1.361c2.231,1.271,2.4,1.583,2.586,4.692.241,4.1-.114,5.593-1.768,7.5-1.211,1.393-1.223,1.561-.235,2.654a1.994,1.994,0,0,1,.355,2.707,7.8,7.8,0,0,0-.342,3.755c.469,2.87-1.654,6.109-4,6.109-1.35,0-1.515.21-1.141,1.426.678,2.191,2.719,6.047,3.441,6.491,1.324.819.558,2.133-1.971,3.384-2.573,1.273-2.649,1.274-4.829.105a29.012,29.012,0,0,0-5.33-1.986c-2.694-.69-3.41-1.238-5.273-4.051-2.427-3.654-6.845-7.9-8.214-7.9a2.987,2.987,0,0,1-1.743-.818c-2.561-2.505-6.858-4.04-6.858-2.453,0,.293-.754.876-1.673,1.3l-1.68.764,1.724,1.8c2.06,2.15,2.053,5.035-.019,6.06-1,.494-1.2.973-.837,1.916.272.692.513,1.04.539.774.07-.792,4.626,1.365,5.495,2.6.444.628,1.952,2.429,3.359,4,2.491,2.783,3.34,3.2,9.976,4.934,1.978.516,2.725,1.071,3.023,2.245a3.93,3.93,0,0,0,1.661,2.239,10.924,10.924,0,0,1,2.827,3.147,59.618,59.618,0,0,0,6.027,7.027l4.468,4.559-.133,8.824c-.07,4.854-.33,8.95-.583,9.1-.685.427-12.181-3.251-18.291-5.852a37.558,37.558,0,0,1-7.377-3.994c-1.812-1.559-3.606-1.885-7.4-1.343-1.084.155-.355,1.231,1.293,1.915a7.145,7.145,0,0,1,2.916,2.865c.944,1.75,2.022,2.462,6,3.975a79.166,79.166,0,0,1,11.662,6.243l6.813,4.4-.158,3.8-.158,3.8-3.619.079A18.874,18.874,0,0,1,1800.9,560.3Z" transform="translate(-1411.273 -136.197)" fill="currentColor"/>
      <path id="Path_24" data-name="Path 24" d="M1762.8,670.538c-2.383-1.606-3.125-3.277-2.041-4.586,1.046-1.264,2.3-1.154,4.475.39,1.933,1.378,2.415,3.564,1.077,4.9C1765.341,672.212,1765.252,672.195,1762.8,670.538Z" transform="translate(-1465.381 -248.799)" fill="currentColor"/>
      <path id="Path_25" data-name="Path 25" d="M1774.435,660.046c-1.16-.222-1.42-.631-1.268-1.974.152-1.285.589-1.74,1.832-1.884,2.13-.248,4.608,1.72,4.037,3.206C1778.624,660.469,1777.5,660.629,1774.435,660.046Z" transform="translate(-1470.09 -245.533)" fill="currentColor"/>
      <path id="Path_26" data-name="Path 26" d="M1757.549,538.738c-4.272-4.269-2.865-17.435,2.218-20.763,2.25-1.475,5.691-.686,7.992,1.83,1.781,1.953,1.825,2.168,1.825,9.037,0,7.849-.272,8.407-5.165,10.639C1761.155,540.968,1759.615,540.8,1757.549,538.738Z" transform="translate(-1463.459 -194.655)" fill="currentColor"/>
      <path id="Path_27" data-name="Path 27" d="M1784.776,529.871c-1.889-.887-3.479-3.305-2.839-4.332.754-1.228,5.78-.875,6.8.477,1.217,1.612.957,2.593-.951,3.562A3.261,3.261,0,0,1,1784.776,529.871Z" transform="translate(-1473.263 -197.42)" fill="currentColor"/>
      <path id="Path_28" data-name="Path 28" d="M1726.453,498.154c-.666-.664-.526-1.043,1.077-2.909a10.008,10.008,0,0,0,1.933-4.982c.412-3.109,1.876-6.264,2.909-6.264.944,0,1.249,2,.513,3.373a7.656,7.656,0,0,0-.615,3.454C1732.5,494.283,1728.107,499.81,1726.453,498.154Z" transform="translate(-1452.86 -182.484)" fill="currentColor"/>
      <path id="Path_29" data-name="Path 29" d="M1513.019,405.3c-1.629-1.348-3-2.962-3.055-3.585-.57-6.825-1.584-8.549-7.339-12.494a17.338,17.338,0,0,1-4.018-5.149c-1.965-3.678-1.99-3.845-1.115-6.625a9.414,9.414,0,0,1,2.44-4.014c1.534-1.155,1.565-1.148,4.931,1.394,3.251,2.457,3.429,2.511,4.437,1.4a10.47,10.47,0,0,0,1.7-3.52c.564-2.024.475-2.554-.6-3.72-3.036-3.3-3.79-5.36-3.118-8.52.723-3.427,2.637-6.466,4.082-6.466a15.9,15.9,0,0,1,4.31,1.9c2.858,1.633,3.435,1.773,4.094.983,1.553-1.874,8.512-3.343,10.008-2.114.45.371.792,2.089.792,3.991,0,2.6-.247,3.436-1.109,3.77-1.058.41-1.058.469,0,1.247,1.629,1.2,1.407,1.882-1.743,5.43a16.476,16.476,0,0,0-2.852,3.857c0,.356.856.944,1.9,1.309,1.464.51,1.9,1.05,1.908,2.344a7.924,7.924,0,0,0,.925,3.265c1.889,3.271,2.345,4.874,2.643,9.3.266,4.052.127,4.822-1.28,7.053-1.635,2.6-5.14,5.193-7,5.193-.589,0-.906.261-.71.58.621,1-2.63,4.22-4.994,4.945C1516.112,407.717,1515.827,407.621,1513.019,405.3Z" transform="translate(-1368.947 -134.876)" fill="currentColor"/>
      <path id="Path_30" data-name="Path 30" d="M1561.9,391.135c-1.344-1.06-1.667-1.846-1.667-4.078a15.517,15.517,0,0,0-.653-4.485c-1.489-3.921-.33-18.464,1.876-23.445a27.507,27.507,0,0,0,1.718-5.417c.539-3.369,2.472-4.468,9.494-5.392a7.989,7.989,0,0,1,5.2.978,11.988,11.988,0,0,0,3.9,1.323c1.832,0,5.565,1.641,8.055,3.537,2.085,1.591,2.085,1.6,1.065,3.625a18.556,18.556,0,0,1-1.927,3.059,6.918,6.918,0,0,0-1.229,2.852,18.152,18.152,0,0,1-2.459,4.99,22.9,22.9,0,0,0-2.928,6.877c-.444,2.04-1.1,3.8-1.477,3.914s-2.51.364-4.753.557a14.864,14.864,0,0,0-4.544.839c-.387.4-.982,4.94-1.166,8.869-.051,1.018-3.365,2.71-5.311,2.71A6.347,6.347,0,0,1,1561.9,391.135Z" transform="translate(-1391.642 -132.762)" fill="currentColor"/>
      <path id="Path_31" data-name="Path 31" d="M1704.2,373.651c-2.941-4.781-7.162-13.9-6.832-14.76.545-1.429,13.31-1.263,16,.209a29.855,29.855,0,0,1,10.28,10.7c1.242,2.347-.57,3.48-5.3,3.309-3.023-.11-4.576.179-6.585,1.227C1707.9,376.355,1705.748,376.159,1704.2,373.651Z" transform="translate(-1442.339 -136.305)" fill="currentColor"/>
      <path id="Path_32" data-name="Path 32" d="M1590.222,304.19a10.738,10.738,0,0,0-4.475-1.565c-3.245-.005-4.189-1.192-4.43-5.56a17.883,17.883,0,0,0-.843-5.078c-.995-1.853-1.375-7.768-.6-9.22a14.922,14.922,0,0,0,.811-4.825c.1-2.972-.158-3.872-1.616-5.743a11.1,11.1,0,0,1-1.946-3.486c-.19-1.093-.875-1.32-4.969-1.651a32.563,32.563,0,0,1-5.774-.829c-1.439-.624-7.263-7.991-7.694-9.736a8.946,8.946,0,0,1,.247-3.639c.729-2.639,2.269-3.187,7.314-2.594q7.843.922,9.367,5.93c.52,1.713,2.142,2.182,6.37,1.844,5.064-.406,7.257.826,7.276,4.077a2.412,2.412,0,0,0,1.6,2.368c2.434,1.107,3.1,3.156,2.041,6.238-.887,2.571-.881,2.6,1.223,4.656,1.166,1.138,2.117,2.706,2.117,3.485,0,1.179.45,1.481,2.694,1.811,1.483.219,5.115.87,8.081,1.448l5.387,1.051,3.549-1.684a22.839,22.839,0,0,1,4.215-1.683,12.266,12.266,0,0,0,3.365-2.249c2.636-2.2,2.795-2.247,7.821-2.128,5.932.14,7.745.663,12.105,3.486,5.241,3.4,8.049,8.114,6.027,10.138-.418.415-.374,1.307.127,2.63.634,1.679.589,2.185-.272,3.142a7.012,7.012,0,0,0-1.255,3.359c-.2,1.933-.627,2.415-3.29,3.744-5.26,2.626-12.929,2.607-14.108-.035-.513-1.149-.735-1.215-1.534-.464a21.609,21.609,0,0,1-3.778,2.278c-2.453,1.216-4.107,1.436-12.34,1.645-10.16.259-12.511-.222-13.31-2.725-.551-1.743-1-1.622-3.486.944a8.423,8.423,0,0,1-2.82,2.2A12.941,12.941,0,0,1,1590.222,304.19Z" transform="translate(-1391.523 -96.808)" fill="currentColor"/>
      <path id="Path_33" data-name="Path 33" d="M1568.135,319.9c-1.306-.321-8.322-5.1-10.1-6.873-1.546-1.549-1.2-3.547,1.49-8.6,2.129-4,2.833-4.784,4.912-5.5,2.871-.989,5.894-.309,8.594,1.936,1.642,1.367,1.743,1.792,2.149,8.822.418,7.357.412,7.393-1.223,9.031C1572.387,320.286,1570.917,320.585,1568.135,319.9Z" transform="translate(-1390.984 -114.545)" fill="currentColor"/>
      <path id="Path_34" data-name="Path 34" d="M1522.032,294.36c-2.89-1.33-5.919-4.5-5.919-6.193,0-.593.913-1.879,2.028-2.859l2.034-1.782-5.9.193c-6.674.218-7.669-.347-7.669-4.364,0-3.027-.8-4.2-4.424-6.425a13.387,13.387,0,0,1-3.182-2.339,9.843,9.843,0,0,1,1.071-2.2c1-1.683,1.274-1.785,3.961-1.436,3.429.446,5.108,1.211,5.108,2.327,0,.449,1.28,2.15,2.839,3.781,2.111,2.2,3.321,2.966,4.684,2.966,1.648,0,1.876-.245,2.117-2.3.285-2.462-.608-3.727-4.094-5.8-.957-.571-1.743-1.4-1.743-1.837s1.42-1.922,3.156-3.3c2.364-1.868,3.6-2.432,4.912-2.244.963.138,3.3.4,5.184.572a13.8,13.8,0,0,1,4.963,1.326l1.534,1.005-.355,11.754c-.209,6.973-.627,12.09-1.039,12.581a4.374,4.374,0,0,0-.272,3.026c.64,3.419-.475,4.879-3.689,4.815A16.025,16.025,0,0,1,1522.032,294.36Z" transform="translate(-1369.701 -100.64)" fill="currentColor"/>
      <path id="Path_35" data-name="Path 35" d="M1458,284.337c-2.6-1.6-4.342-1.624-6.04-.085a1.719,1.719,0,0,1-1.781.478c-.976-.6,2.478-15.08,3.543-14.845.463.1.716-1.036.716-3.226,0-4.248,2.972-19.266,4.189-21.175,1.876-2.937,6.858-.5,5.222,2.555a2.858,2.858,0,0,0-.07,2.6c.685,1.518.475,5.568-.361,7.223a9.906,9.906,0,0,0-.488,3.63c.057,2.17.279,2.566,1.584,2.75a13.838,13.838,0,0,0,4.322-.57c2.529-.709,2.922-.667,4.018.428,2.339,2.342,2.9,11.125.881,13.845-.526.712-1.546,2.211-2.256,3.333A9.691,9.691,0,0,1,1458,284.337Z" transform="translate(-1351.76 -94.651)" fill="currentColor"/>
      <path id="Path_36" data-name="Path 36" d="M1489.81,304.085a3.239,3.239,0,0,1,.469-3.294c.589-.942,1.1-1.77,1.128-1.839a10.583,10.583,0,0,1,2.06-.479c1.9-.333,2.085-.185,3.321,2.614.8,1.8,1.084,3.2.735,3.55a9.766,9.766,0,0,1-3.847.8C1490.684,305.646,1490.361,305.532,1489.81,304.085Z" transform="translate(-1366.24 -114.495)" fill="currentColor"/>
      <path id="Path_37" data-name="Path 37" d="M1654.772,177.957a2.84,2.84,0,0,1-.082-1.773c.482-.78-.355-1.749-2.44-2.829-1.806-.935-1.952-.908-3.359.608-1.084,1.17-1.832,1.472-2.865,1.152-.767-.238-2.1-.582-2.979-.764a6.512,6.512,0,0,1-2.966-1.964c-1.172-1.384-1.534-1.508-2.377-.809a3.662,3.662,0,0,0-.995,2.5c0,2.178-2.016,3.458-4.57,2.9a84.649,84.649,0,0,0-9.735-.521c-6.832-.086-8.024-.262-9.583-1.423-1.527-1.135-1.806-1.833-1.971-4.877a11.153,11.153,0,0,1,.8-5.471c1.521-2.941,5.254-6.376,6.934-6.376,2.713,0,3.106-1.479.938-3.537-3.524-3.352-4.6-6.934-3-9.973,1.052-2.005,1.762-2.315,5.292-2.324,3.853-.011,6.395,1.853,7.377,5.4a10.31,10.31,0,0,0,2.18,3.881c1.255,1.256,1.756,1.406,2.808.84,1.223-.654,1.153-.829-1.534-3.592a20.934,20.934,0,0,1-3.575-4.722c-.672-1.62-.57-2.062.938-4.038l1.692-2.22h-4.329c-5.394,0-7.143-1.024-7.143-4.181a12.8,12.8,0,0,1,1.312-4.779c.723-1.414,1.16-2.722.976-2.907-1-1,1.832-3.977,5.634-5.927l4.189-2.149,4.2,2.207c5.349,2.809,5.02,2.7,5.051,1.75a7.021,7.021,0,0,1,.494-1.919c.254-.61.215-1.138-.082-1.172s-1.369-.136-2.377-.224c-2.618-.229-6.927-5.05-8.341-9.322a25.342,25.342,0,0,0-3.239-6.169,15.287,15.287,0,0,1-2.117-3.284c0-.275-.545-.674-1.217-.885-1.8-.572-2.5-3.387-2.015-8.082.57-5.493,1.223-6.216,5.292-5.857,4.221.373,5.368,1.211,10.008,7.3a35.627,35.627,0,0,0,4.107,4.916c.7-.7-1.008-4.564-3.055-6.887-3.144-3.576-3.01-5.486.507-7.275a55.54,55.54,0,0,0,5.058-3.01,9.967,9.967,0,0,1,3.644-1.723c.7,0,1.122-.479,1.122-1.293,0-.71,1.16-2.429,2.579-3.819l2.573-2.526-1.623-1.934a7.065,7.065,0,0,1-1.648-2.994c-.013-.583-.672.223-1.47,1.792-3.917,7.711-6.94,10.425-11.712,10.51a37.5,37.5,0,0,0-6.591.92c-5.026,1.2-7.073.458-7.333-2.664a11.7,11.7,0,0,1,.754-4.584c.526-1.254.792-2.28.589-2.28-.678,0-2.738,2.718-2.738,3.613a4.98,4.98,0,0,1-1.616,2.384c-1.306,1.207-1.971,1.4-3.41.988-4.246-1.218-7.327-4.769-5.767-6.647.685-.822.6-.972-.539-.972a13.747,13.747,0,0,1-1.819-.1c-1.046-.21-2.022-2.239-2.041-4.256-.013-1.693.5-2.611,2.516-4.45,2.719-2.487,3.087-3.24,1.584-3.24a4.217,4.217,0,0,1-2.218-1.268,4.577,4.577,0,0,0-2.732-1.268c-5.495,0-4-5.9,2.1-8.261a15.561,15.561,0,0,0,4.519-3.271c1.958-2.049,2.706-2.411,4.982-2.411,2.516,0,2.656-.093,2.294-1.53-.3-1.187.044-1.888,1.515-3.128a5.138,5.138,0,0,0,1.9-2.829,2.328,2.328,0,0,1,2.871-2.349c.691.128,1.565.254,1.952.281a11.147,11.147,0,0,1,2.96,1.581c2.427,1.644,2.991,1.314,2.991-1.745,0-.757.995-2.78,2.218-4.5a12.613,12.613,0,0,0,2.218-4.249c0-.621,1.128-2.317,2.51-3.77,2.022-2.127,2.839-2.578,4.183-2.321,1.388.266,1.768.022,2.288-1.46.672-1.937,3.321-3.232,5.736-2.807,4.8.843,6.313.712,9.139-.793,3.15-1.677,8.043-2.309,9.989-1.291.856.45,2.263.308,4.912-.494,2.687-.814,4.107-.952,5.134-.5a14.288,14.288,0,0,0,4.912.4c4.709-.3,5.882.08,6.82,2.221.868,1.978,2.586,3.1,5.495,3.58,2.446.407,3.5,1.546,4.2,4.54.887,3.817.71,7.167-.621,11.986-.938,3.394-1.7,4.828-3.3,6.166a8.09,8.09,0,0,1-2.833,1.743c-1.141,0-4.386,3.974-6.218,7.62a32.789,32.789,0,0,0-1.635,3.553c0,.82,3.2-2.2,3.784-3.571A8.084,8.084,0,0,1,1696.3,43.9c1.033-.7,1.889-1.478,1.889-1.74,0-.718,3.036-.57,3.492.171a14.654,14.654,0,0,1,.4,4.179,9.185,9.185,0,0,1-1.54,5.864c-2.37,3.583-4.354,7.706-4.088,8.5.133.4-1.09,3.726-2.719,7.4s-3.258,7.393-3.619,8.265a64.278,64.278,0,0,0-2.427,12.355c-.247,3.34-3.239,6.2-6.167,5.908-1.787-.181-2.015,0-2.4,1.9a8.864,8.864,0,0,1-1.851,3.612c-1.331,1.417-6.547,3.684-7.13,3.1-.146-.146-.811.341-1.477,1.082-1.2,1.33-1.192,1.358.215,2.3a3.558,3.558,0,0,1,.374,5.343c-.837.931-.868,1.174-.158,1.232a12.973,12.973,0,0,1,1.527.221,16.179,16.179,0,0,0,1.806.244,6.825,6.825,0,0,1,3.01,2.065c2.326,2.488,2.637,7.03.57,8.319-1.661,1.036-1.6,1.628.317,3.135a4.009,4.009,0,0,1,1.584,2.456c0,.761-.589,1.356-1.584,1.607-1.28.321-1.584.791-1.584,2.433a6.825,6.825,0,0,1-5.717,6.174l-2.206.21.215,4.767c.2,4.291.07,4.925-1.268,6.338-3.9,4.127-3.91,4.15-2.706,5.986a9.51,9.51,0,0,0,3.061,2.686,9.347,9.347,0,0,1,2.675,1.987c.951,1.3.583,4.54-.894,7.856C1665.084,176.188,1656,181.8,1654.772,177.957Z" transform="translate(-1407.905 -8.263)" fill="currentColor"/>
      <path id="Path_38" data-name="Path 38" d="M1496.577,232.93c-1.743-1.747-2.053-4.514-.881-7.881.862-2.469,2-2.535,3.657-.214,2.491,3.5,2.522,7.687.07,9C1498.39,234.386,1497.87,234.221,1496.577,232.93Z" transform="translate(-1368.235 -86.955)" fill="currentColor"/>
      <path id="Path_39" data-name="Path 39" d="M1568.914,231.627c-4.519-2.344-4.994-4.619-1.6-7.626a7.6,7.6,0,0,1,9.494-.719c3.543,2.19,3.6,4.986.165,7.878C1574.827,232.966,1571.829,233.14,1568.914,231.627Z" transform="translate(-1393.906 -86.519)" fill="currentColor"/>
      <path id="Path_40" data-name="Path 40" d="M1558.576,208.407c-2.1-.911-3.086-2.75-2.491-4.629.222-.693-.368-1.946-1.559-3.327-2.32-2.69-2.77-4.249-2.332-8.09.38-3.405,2.326-5.494,4.506-4.852a31.355,31.355,0,0,1,5.083,2.867,28.024,28.024,0,0,0,4.177,2.473c1.014,0,1.9,3.542,1.9,7.606v4.378l-2.941,2.247C1561.637,209.585,1561.4,209.636,1558.576,208.407Z" transform="translate(-1389.126 -73.862)" fill="currentColor"/>
      <path id="Path_41" data-name="Path 41" d="M1528.672,197.554c-.767-.809-2.389-2.613-3.613-4.007-3.9-4.466-5.856-5.53-9.824-5.37-3.15.127-3.714-.055-5.4-1.744-1.971-1.971-2.408-4.262-1.23-6.461a2.218,2.218,0,0,1,1.584-1.226,4.1,4.1,0,0,0,2.155-1.228c1.058-1.058,1.134-1.561.564-3.644a9.184,9.184,0,0,0-2.808-4.206c-4.069-3.377-2.313-8.668,2.865-8.668,2.827,0,6.389,2.485,6.389,4.456,0,1.179.913,2.062,2.364,2.282,1.547.235,4.532,3.139,5.907,5.752a22.8,22.8,0,0,0,2.5,3.843c2.18,2.337,2.465,3.5,1.534,6.171-1.255,3.609-1.135,4.438,1,6.871a7.756,7.756,0,0,1,1.9,3.161,5.864,5.864,0,0,1-2.953,4.788C1530.3,198.923,1529.863,198.809,1528.672,197.554Z" transform="translate(-1372.943 -64.197)" fill="currentColor"/>
      <path id="Path_42" data-name="Path 42" d="M1587.813,165.126a16.542,16.542,0,0,1-2.953-3.854,10.414,10.414,0,0,0-1.971-2.886c-2.282-2.45-4.639-7.362-4.639-9.653a5.4,5.4,0,0,1,4.9-5.063c1.648,0,3.974-1.8,3.974-3.075,0-.565-3.08-2.223-4.12-2.22-.349,0-1.984.227-3.638.5-3.834.638-5.8.131-6.636-1.716a3.115,3.115,0,0,1,.228-3.184c.532-1.02.634-1.714.241-1.714a4.321,4.321,0,0,1-1.92-1.268c-1.426-1.424-1.654-4.412-.57-7.511.621-1.787.957-2,3.213-2,2.313,0,2.478-.112,2.06-1.423a8.955,8.955,0,0,0-2.333-3.066c-1.6-1.393-1.819-1.943-1.451-3.6a4.3,4.3,0,0,1,4.063-3.788c3.955-.474,4.069-.939,1.033-4.159l-2.225-2.36,1.28-2.512a9.159,9.159,0,0,1,3.137-3.473c1.477-.763,1.9-1.449,2.053-3.34.184-2.223.342-2.393,2.434-2.569,2.313-.195,6.015,1.745,7.01,3.674,1.4,2.724,3.112,6.827,3.112,7.469,0,1.359,2.662,5.506,5.457,8.507,2.047,2.2,2.782,3.5,2.782,4.95,0,1.491.767,2.777,3.169,5.317,2.776,2.934,3.169,3.684,3.169,6.032,0,2.837.234,3.146,6.313,8.2,2.263,1.886,2.561,2.45,2.561,4.853,0,2.34-.526,3.418-3.784,7.732-2.085,2.757-4.506,5.4-5.387,5.87a2.69,2.69,0,0,0-1.6,2.424c0,.862-1.058,2.953-2.351,4.646-2.6,3.421-3,3.618-5.685,2.806-1.2-.365-1.413-.15-1.584,1.67-.2,2.039-.279,2.093-3.479,2.278C1590.551,167.809,1590.279,167.692,1587.813,165.126Z" transform="translate(-1395.712 -38.629)" fill="currentColor"/>
      <path id="Path_43" data-name="Path 43" d="M1474.209,188.338c.19-.871.545-2.654.78-3.961s.7-2.377,1.014-2.377c.913,0-.082,5.907-1.172,6.972C1473.956,189.822,1473.892,189.754,1474.209,188.338Z" transform="translate(-1360.558 -71.887)" fill="currentColor"/>
      <path id="Path_44" data-name="Path 44" d="M1548.033,143.694c-2.161-1.726-3.663-4.3-3.321-5.691.539-2.187,1.432-3,3.3-3,1.306,0,2.117.617,3.41,2.592,2.035,3.1,2.1,3.979.431,5.647C1550.4,144.684,1549.415,144.8,1548.033,143.694Z" transform="translate(-1386.423 -54.675)" />
    </g>
    </a><a xlink:href="/on"><path id="CA-ON" d="M1668.945,1107.5a3.88,3.88,0,0,1,3.321-2.167,11.8,11.8,0,0,0,3.22-.932c1.172-.761,1.781-5.184.792-5.793-.558-.349-.609-.843-.171-1.679a16.266,16.266,0,0,0,1.039-3.549,5.709,5.709,0,0,1,1.578-3.169c2.288-1.6,4.278-5.3,4.063-7.542-.108-1.179-.247-4.456-.3-7.289-.1-4.81.044-5.4,2.174-9.215l2.282-4.069-1.141-2.51a13.26,13.26,0,0,0-2.491-3.72c-1.325-1.172-1.844-2.909-.868-2.909a26.163,26.163,0,0,1,4.2,3.784c3.372,3.435,6.794,5.647,10.21,6.591,3.473.957,5.387-4.868,2.82-8.582a94.86,94.86,0,0,0-10.362-11.243,15.857,15.857,0,0,0-5.387-1.375,57.026,57.026,0,0,1-7.65-1.483c-2.459-.71-6.173-1-12.8-1-8.708,0-9.393-.089-10.248-1.306a15.217,15.217,0,0,0-4.259-3.036c-2.719-1.4-3.359-2.047-3.422-3.422a6.977,6.977,0,0,0-1.9-3.606c-1.566-1.629-1.673-1.958-.773-2.307q2.111-.808-.241-4.1a32.392,32.392,0,0,1-2.529-4.614c-1.084-2.446-1.54-2.846-3.67-3.188-2.434-.387-9.171-3.606-10.806-5.165a6.089,6.089,0,0,1-1.033-3.264,27.261,27.261,0,0,0-.646-4.253l-.482-1.825-5.115.336c-4.747.311-5.387.2-8.784-1.515l-3.67-1.851-2.611,1.654c-2.383,1.5-2.529,1.737-1.616,2.649s.615,1.242-3.251,3.765a43.477,43.477,0,0,0-6.541,5.222c-2.567,2.738-2.871,2.77-11.966,1.274a83.311,83.311,0,0,0-9.241-.913c-4.253-.114-8.505-1.616-8.505-3,0-.273-.735-.494-1.629-.494-.989,0-2.535-.868-3.961-2.212-2.313-2.2-2.377-2.212-8.151-2.218-4.189-.006-6.072-.26-6.718-.913a7.967,7.967,0,0,0-3.378-1.35c-3.486-.627-3.853-1.1-4.335-5.527-.4-3.613-.6-4.025-2.453-4.956-1.939-.976-2.016-1.166-1.946-4.753.07-4.05.824-21.042,1.2-27.19.127-2.091.412-8.335.634-13.875.513-12.646-.583-10.66,14.526-26.371,3.188-3.312,7.637-8.129,9.887-10.705s4.4-5,4.76-5.387,4.063-4.7,8.233-9.576,9.006-10.452,10.749-12.382c8.55-9.45,12.371-13.742,13.531-15.188l1.268-1.584,2.111,1.2c2.586,1.467,6.864,5.462,6.864,6.413a7.82,7.82,0,0,0,2.085,2.718,10.217,10.217,0,0,0,5.863,2.747,10.922,10.922,0,0,1,5.691,2.522c1.813,1.7,3.416,2.312,6.357,2.419.716.026,2.852,1.43,4.753,3.12l3.454,3.073,11.877.4c10.344.346,12.213.569,14.495,1.733l2.618,1.337-.425,5.494c-.241,3.021-.678,5.74-.976,6.041s-.019,1.417.653,2.515a15.21,15.21,0,0,1,1.584,4.838c.691,5.07.8,5.593,1.394,6.778a10.564,10.564,0,0,1,.387,4.079c-.158,2.353.165,3.486,1.686,5.885,2.446,3.858,10.065,13.067,10.812,13.067,1.451,0,5.495,5.232,6.636,8.576l1.217,3.6,3.923-.3,3.917-.3.4,3.245c.64,5.121.9,7.428,1.274,11.161.19,1.92.469,4.2.621,5.07s.444,3.3.653,5.387.488,4.519.615,5.387c.311,2.085.906,7.136,1.312,11.091.177,1.743.45,4.164.6,5.387.951,7.631,1.572,12.828,1.914,16.092a32.219,32.219,0,0,0,2.294,7.986c1.6,3.587,2.478,4.658,5.584,6.851a34.1,34.1,0,0,0,15.566,5.52,14.626,14.626,0,0,1,6.712,2.256,12.223,12.223,0,0,0,4.12,1.87c.672.006,1.977,1.1,2.947,2.465l1.73,2.453,5.476-.3c4.741-.26,6.008-.6,9.469-2.5,4.012-2.206,7.213-3.213,7.308-2.3a22.024,22.024,0,0,0,.881,3.91c.336,1.065-.089,1.794-1.984,3.4a86.256,86.256,0,0,0-11.941,12.657c-2.44,3.023-4.722,5.52-5.07,5.546-1.071.082-3.606,2.472-3.245,3.055.742,1.191-4.341,3.118-8.55,3.245-7.568.228-18.462,4.709-20.788,8.55-2.3,3.809-2.288,4.734.114,5.736a6.871,6.871,0,0,0,3.4.583c.932-.247,1.483.209,2.282,1.876,1.23,2.586.811,2.947-3.448,2.947-2.567,0-9.488,2.611-11.275,4.259-.837.767-.76,1.014.621,2.06l1.566,1.192-1.743.437a11.52,11.52,0,0,1-4.538-.272c-6.015-1.509-7.434-.843-14.919,6.991-4.1,4.3-5.058,4.988-6.972,5.039-1.223.025-3.144.146-4.265.266l-2.053.209Z" transform="translate(-204.49 -312.832)" fill="currentColor"/>
    </a><a xlink:href="/pe"><path id="CA-PE" d="M2087.4,1064.99a28.153,28.153,0,0,0-5.609-.564,44.991,44.991,0,0,1-8.759-1.249c-4.246-1.249-5.115-1.458-6.338-1.534-2.586-.158-2.852-1.09-1.287-4.43.824-1.768,1.876-3.213,2.332-3.213s2.123,1.236,3.7,2.751c2.313,2.212,3.01,2.586,3.574,1.9.418-.5,2-.849,3.841-.849a12.676,12.676,0,0,0,4.2-.564c2.022-1.077,7.694-2.529,7.992-2.047a3.591,3.591,0,0,1-.6,2.2,13.575,13.575,0,0,0-1.033,4.525C2089.292,1064.426,2088.322,1065.9,2087.4,1064.99Z" transform="translate(-400.361 -382.962)" fill="currentColor"/>
    </a><a xlink:href="/qc"><g id="CA-QC" transform="translate(1474.102 435.918)">
      <path id="Path_45" data-name="Path 45" d="M1849.687,975.971a12.028,12.028,0,0,1-1.287-3.961c-.234-2.092-.393-2.225-2.858-2.4-2.617-.2-6.015,1.115-9.767,3.758-1.28.9-2.82,1.185-6.42,1.185-4.7,0-4.741-.019-6.236-2.212-.83-1.217-2.047-2.218-2.706-2.218a13.905,13.905,0,0,1-4.4-1.984,14.541,14.541,0,0,0-6.724-2.269c-5.349-.456-11.3-2.421-14.951-4.937-2.694-1.851-3.638-3.036-5.216-6.522a29.367,29.367,0,0,1-2.339-8.379c-.222-2.263-.52-4.975-.659-6.021s-.57-4.614-.957-7.922-.818-7.016-.963-8.239-.418-3.5-.609-5.07-1.2-10.267-2.237-19.331-2.053-17.224-2.244-18.136c-.3-1.455-.1-1.706,1.641-2.054,1.838-.367,1.952-.544,1.559-2.342-.336-1.522-.044-2.521,1.318-4.588a10.237,10.237,0,0,0,1.743-4.239c0-.878-1.16-4.021-2.573-6.984a64.329,64.329,0,0,1-3.258-7.922,15.614,15.614,0,0,0-1.762-4.075,7.242,7.242,0,0,1-.919-4.6c.177-3.317-1.5-6.924-3.79-8.149a2.692,2.692,0,0,1-1.223-2.368,6.424,6.424,0,0,0-1.255-3.305,6.218,6.218,0,0,1-1.255-2.22c-.019-.945,3.08-3.69,6.655-5.9a25.26,25.26,0,0,0,5.165-4.362c1.109-1.328,3.283-3.807,4.842-5.51a29.561,29.561,0,0,0,5.146-8.777c2.11-5.152,2.313-6.181,2.206-11.039a32.116,32.116,0,0,0-1.863-10.554c-.963-2.858-1.92-5.954-2.13-6.88-.665-2.931-6.325-9.016-10.413-11.2-4.893-2.607-8.664-6.371-8.854-8.834a11.416,11.416,0,0,1,.925-4.343,22.548,22.548,0,0,0,1.236-3.412,4.45,4.45,0,0,1,1.477-2c.982-.8,1.3-1.792,1.3-4.08,0-2.134.368-3.417,1.242-4.35,1.153-1.226,1.179-1.515.342-3.945a36.733,36.733,0,0,1-1.192-4.187,22.218,22.218,0,0,0-3.923-7.739c-1.3-1.717-1.445-2.6-1.451-9.093,0-5.188-.247-7.484-.881-8.239a32.6,32.6,0,0,1-2.675-5.392l-1.8-4.344,1.629-3.326c1.553-3.17,1.775-3.346,4.627-3.737,4.76-.652,8.791-.481,11.548.491,3.625,1.279,8.677,1.73,10.717.956a16.7,16.7,0,0,0,4.259-3.16c1.388-1.375,2.827-2.493,3.194-2.484,1.109.024,13.354,6.471,17.423,9.175,3.1,2.059,3.8,2.832,3.7,4.12a6.093,6.093,0,0,0,.951,3.2c.963,1.451,1.737,1.7,7.574,2.4a67.909,67.909,0,0,1,9.583,1.783l3.074,1-.431,3.464c-.425,3.379.051,5.565,2.979,13.821a12.039,12.039,0,0,1,.608,3.641,4.788,4.788,0,0,0,1.54,3.34,17.752,17.752,0,0,1,2.852,4.439l1.255,2.84,3.125-.38c3-.366,3.245-.274,6.477,2.486a18.674,18.674,0,0,0,5.089,3.3c.951.239,1.73.689,1.73,1q0,1.77,4.037-2.128c2.079-2.007,2.9-3.359,3.22-5.3.3-1.839.856-2.8,1.857-3.258a5.635,5.635,0,0,0,2.288-3.41c.982-3.129.881-9.714-.19-11.628a3.407,3.407,0,0,1-.526-1.9c.1-.341.475-2.181.824-4.09.583-3.14,2.085-5.4,3.15-4.746a6.924,6.924,0,0,1,.843,2.637c.539,2.948,3.27,7.771,4.4,7.771.767,0,2.573,6.338,2.25,7.922-.349,1.728.171,1.972,3.67,1.719l3.644-.264-.1,4.026a28.714,28.714,0,0,1-.773,6.167,4.427,4.427,0,0,0-.07,3.27c.735,1.374,4.113,3.524,6.458,4.109,2.13.532,2.313,1.095,2.738,8.53a56.738,56.738,0,0,0,1.217,9.178c.482,1.757,1.046,4.212,1.255,5.457a5.558,5.558,0,0,0,2.326,3.706c1.9,1.4,4.988,6.953,5,8.985a3.6,3.6,0,0,0,1.185,2.079,12.929,12.929,0,0,1,2.282,3.509c1.065,2.362,1.058,2.54-.228,5.444l-1.325,3-3.334-.346c-1.832-.189-4.2-.534-5.267-.764-1.724-.371-2.117-.162-3.486,1.851-1.7,2.489-2.776,2.8-4.449,1.279a14.562,14.562,0,0,0-4.975-1.8c-4.227-.871-4.639-.693-5.362,2.341a4,4,0,0,1-1.99,2.479c-1.21.552-1.565,1.193-1.565,2.836a5.736,5.736,0,0,1-1.965,4.176c-1.724,1.8-1.92,2.372-1.616,4.618a16.024,16.024,0,0,0,1.217,4.233,22.023,22.023,0,0,0,7.821,7.846c2.751,1.342,3.207,2.861,1.952,6.493-.684,1.977-.615,2.23,1.1,3.7,1.851,1.592,4.05,1.745,7.726.536,1.217-.4,1.375-.136,1.775,2.839a7.943,7.943,0,0,0,2.028,4.873c1.451,1.455,1.9,1.556,5.089,1.157,2.877-.359,3.72-.236,4.747.691a5.977,5.977,0,0,0,2.326,1.326c2.947.539,9.431.7,10.147.257.456-.278.944-1.763,1.1-3.3.355-3.578.818-7.815.875-8.035a12.04,12.04,0,0,1,2.662,1.165,7.962,7.962,0,0,0,5.229.986c2.751-.37,12.9-3.822,23.526-8q24.442-9.614,30.06-11.041a20.288,20.288,0,0,0,4.937-1.752c.507-.423,1.071-.482,1.356-.143a53.372,53.372,0,0,1,4.525,6.175,26.539,26.539,0,0,1-3.961,3.37c-5.812,4.434-9.272,8.372-9.672,10.995a40.625,40.625,0,0,1-3.175,7.922c-1.559,3.137-3.1,6.417-3.416,7.289-.71,1.97-10.958,7.477-17.486,9.4-2.44.717-7.859,2.3-12.042,3.507-24.509,7.1-36.354,11.555-38.566,14.516a13.721,13.721,0,0,0-1.749,4.672c-.317,1.7-1.166,5.012-1.889,7.363-1.141,3.714-1.515,4.278-2.827,4.278-3.01,0-9.228,7.073-11.415,12.993a41.372,41.372,0,0,1-3.188,6.357,17.436,17.436,0,0,0-2.32,5.387c-.716,5.311-10.438,21.048-15.5,25.1-7.1,5.685-16.878,16.079-15.965,16.986.139.139,2.675-2.434,5.641-5.71a87.122,87.122,0,0,1,9.557-9.095,53.394,53.394,0,0,0,11.136-11.769c2.579-3.8,7.193-12.948,7.193-14.26a7.1,7.1,0,0,1,.723-2.738c1.153-2.2,6.991-9.393,9.418-11.6,1.223-1.109,3.638-3.327,5.368-4.931a53.909,53.909,0,0,1,6.972-5.229c2.1-1.28,5.964-3.8,8.575-5.609a26.505,26.505,0,0,1,8.9-4.31c3.885-.957,4.367-.944,7.859.133,3.042.938,3.917,1.54,4.842,3.3,2.516,4.791,2.123,8.049-1.509,12.46-3.53,4.284-4.829,5.121-8.543,5.5-7.276.748-13.329,2.446-15.306,4.3-2.573,2.4-4.69,3.125-9.7,3.321-6,.228-6.35.653-5.856,7l.412,5.191-2.446.387a15.312,15.312,0,0,1-4.132.089,2.323,2.323,0,0,0-2.7,1.122c-1.242,1.756-3.942,10.54-4.437,14.425-.2,1.565-.634,4.709-.976,6.972s-.735,5.349-.887,6.851c-.494,4.886-2.377,9.076-4.893,10.85a17.981,17.981,0,0,0-3.733,3.7,6.123,6.123,0,0,1-2.77,2.339c-.735.146-5.951,1.28-11.6,2.522a100.015,100.015,0,0,1-13.646,2.256C1851.082,977.72,1850.613,977.536,1849.687,975.971Z" transform="translate(-1764.69 -683.023)" fill="currentColor"/>
      <path id="Path_46" data-name="Path 46" d="M2054.736,986.576a9.564,9.564,0,0,1-3.169-1.353,18.712,18.712,0,0,0-5.2-1.876q-6.8-1.47-2.637-4.881c1.445-1.181,2.649-1.5,5.932-1.581,8.664-.208,11.782.167,17.588,2.119,5.786,1.945,5.863,2,5.863,4.03,0,2.419-.235,2.519-7.289,3.112C2058.139,986.791,2056.453,986.856,2054.736,986.576Z" transform="translate(-1866.298 -790.62)" fill="currentColor"/>
    </g>
    </a><a xlink:href="/sk"><path id="CA-SK" d="M1368.084,944.246a36.416,36.416,0,0,0-5.337-.672c-2.789-.234-5.78-.532-6.655-.659s-3.442-.418-5.7-.64-4.829-.507-5.7-.627-3.442-.412-5.7-.64-11.11-1.99-19.647-3.91-15.959-3.575-16.479-3.689c-2.877-.615-4.513-.982-8.239-1.863-2.263-.532-4.69-1.065-5.387-1.185s-3.486-.729-6.2-1.35c-4.012-.919-4.874-1.325-4.614-2.174.3-.97,5.292-21.446,5.736-23.539.108-.523,1.1-4.658,2.187-9.19s3.01-12.517,4.253-17.746,3.689-15.353,5.419-22.5,3.27-13.561,3.41-14.254,1.109-4.829,2.161-9.19,3.207-13.348,4.792-19.971,3.841-16.035,5.02-20.915,3.182-13.2,4.456-18.489l2.313-9.615,3.277.271c1.806.149,4.684.484,6.395.743a37.764,37.764,0,0,0,8.03-.113c4.646-.551,5.14-.486,8.778,1.146,3.587,1.611,5.115,1.729,5.115.394,0-.712-13.468-7.27-16.8-8.179a19.9,19.9,0,0,0-3.961-.7,4.548,4.548,0,0,1-2.693-1.271,4.075,4.075,0,0,0-5.115-.612c-1.445.774-1.47.568-.532-3.818.545-2.53.919-3.161,1.743-2.927.938.266,5.419,1.187,9.653,1.986.849.159,2.11.409,2.808.555,2.117.443,28.406,5.561,30.1,5.861.875.153,5.007.96,9.19,1.792s8.746,1.621,10.141,1.754c2.44.234,2.529.323,2.44,2.421-.057,1.2-.83,7.454-1.73,13.9s-1.806,13.151-2.028,14.894c-.393,3.109-1.16,4.753-2.225,4.753-.97,0-4.766,4.21-5.59,6.205a5.228,5.228,0,0,0-.152,4.056c1.407,4.471,1.16,6.661-1.008,8.9-1.407,1.451-1.851,2.351-1.464,2.973.45.726.925.576,2.561-.8a7.247,7.247,0,0,1,2.941-1.688c.957,0,.944,2-.082,14.577-.158,1.917-.45,6.053-.646,9.19s-.482,6.988-.627,8.556-.437,5.7-.646,9.19-.488,7.336-.621,8.556-.431,5.355-.646,9.19-.5,7.685-.621,8.556-.418,5.007-.659,9.19-.513,8.033-.608,8.556-.374,4.516-.627,8.873-.539,8.347-.634,8.873-.38,4.519-.634,8.873-.558,8.429-.672,9.05-.272,2.973-.349,5.229C1369.852,944.056,1369.231,945.317,1368.084,944.246Z" transform="translate(-112.493 -270.286)" fill="currentColor"/>
    </a><a xlink:href="/yt"><path id="CA-YT" d="M1092.311,555.239c-.678-.446-3.365-1.771-5.983-2.945-3.993-1.793-17.759-8.94-40.353-20.948-7.187-3.817-33.5-20.171-52.972-32.92-6.9-4.515-9.982-6.9-9.982-7.7,0-1.6,1.956-4.677,4-6.287,3.679-2.892,1.553-4.758-5.671-4.987-1.432-.045-2.08-.421-2.322-1.349-.185-.707-.575-1.221-.866-1.142a3.851,3.851,0,0,1-3.724-2.086c-.3-.954,1.2-3.646,5.9-10.583,8.723-12.866,24.848-36.749,37.309-55.254,9.925-14.738,22.747-33.741,40.062-59.369l7.783-11.519,2.022.7c4.158,1.433,5.362,2.86,5.831,6.915a23.711,23.711,0,0,0,1.914,6.665,23.054,23.054,0,0,1,1.889,5.365c.3,1.795,1.1,3.03,3,4.656,2.358,2.018,2.5,2.311,1.641,3.329a165.214,165.214,0,0,0-9.247,15.06,54.256,54.256,0,0,0-2.377,6.021,56.153,56.153,0,0,1-2.542,6.338c-2.763,5.572-2.922,5.148,3.777,10.182,4.614,3.467,6.053,4.9,6.053,6.025a20.945,20.945,0,0,1-2.269,5.816,22.237,22.237,0,0,0-2.6,7.83c-.323,3.42-.285,3.526,1.978,5.252,2.472,1.884,2.377,1.361,1.661,8.734-.019.233-.875.608-1.9.832a5.315,5.315,0,0,0-3.847,4.705A9.156,9.156,0,0,1,1069.2,446c-1.388,2.344-1.077,4.442.881,6.071.723.6.919,1.533.691,3.344a5.419,5.419,0,0,0,1.1,4.5,9.176,9.176,0,0,1,1.5,5.511,15.95,15.95,0,0,0,1.2,5.672c1.071,2.064,1.065,2.317-.184,6.647a74.846,74.846,0,0,0-2.922,16.324,37,37,0,0,1-1.071,6.856c-.621,1.784-.526,2.194.887,3.705,2.11,2.27,2.706,3.521,3.948,8.369a39.709,39.709,0,0,0,2.827,7.4c1.293,2.4,1.553,3.374.963,3.6-.444.17-.951,1.684-1.122,3.364a42.138,42.138,0,0,1-.78,4.828c-.545,2.114.266,2.9,5.406,5.25a47.339,47.339,0,0,1,5.926,3.276,9.727,9.727,0,0,0,4.12,1.713l1.68.03-.177,6.621c-.1,3.641-.254,6.7-.355,6.8S1092.989,555.685,1092.311,555.239Z" transform="translate(-1.175 -120.809)" fill="currentColor"/>
    </a>
  </g>
</svg>
