<svg xmlns="http://www.w3.org/2000/svg" width="22.01" height="22.01" viewBox="0 0 22.01 22.01">
  <g id="Icon_feather-instagram" data-name="Icon feather-instagram" transform="translate(1 1)">
    <path id="Path_52" data-name="Path 52" d="M8,3h10a5,5,0,0,1,5,5v10a5,5,0,0,1-5,5H8a5,5,0,0,1-5-5V8A5,5,0,0,1,8,3Z" transform="translate(-3 -3)" fill="none" stroke="#6b6b6b" stroke-linecap="round" stroke-linejoin="round" stroke-width="2"/>
    <path id="Path_53" data-name="Path 53" d="M20.025,15.35a4,4,0,1,1-3.372-3.372,4,4,0,0,1,3.372,3.372Z" transform="translate(-6.019 -5.975)" fill="none" stroke="#6b6b6b" stroke-linecap="round" stroke-linejoin="round" stroke-width="2"/>
    <path id="Path_54" data-name="Path 54" d="M26.25,9.75h0" transform="translate(-10.743 -5.248)" fill="none" stroke="#6b6b6b" stroke-linecap="round" stroke-linejoin="round" stroke-width="2"/>
  </g>
</svg>
