<svg id="Layer_1" data-name="Layer 1" xmlns="http://www.w3.org/2000/svg" viewBox="0 0 769.43 282.94"><defs><style>.cls-1{fill:#1473e6;}</style></defs><title>logo</title><path class="cls-1" d="M87.27,200.55q0,35.46-17.84,55.68-19.89,22.62-58.18,22.62H0V241.58H11.25q20.91,0,29.77-9.44t9-31.59V139.3H87.27Z"/><path class="cls-1" d="M165.91,217.83H155.68a55.13,55.13,0,0,1-22.61-4.44,42.09,42.09,0,0,1-22.28-22.27,55.29,55.29,0,0,1-4.43-22.61V54h37.16V168.51q0,6.93,2.61,9.54t9.55,2.5h10.23Z"/><path class="cls-1" d="M258.63,160.1a63.12,63.12,0,0,1,.91,10.45,46.17,46.17,0,0,1-8.86,27.73q-14.2,19.54-46.25,19.55H160V180.55h43.63q10.23,0,14.43-2.72t4.32-8.3a17.51,17.51,0,0,0-.45-3.75Q220.79,160,219.66,154c-.31-1.51-.61-3.14-.91-4.88l-.46-2.16-.34-2.16q-1.71-9.31-2.61-13.3l35.57-10.79Q254.32,136.69,258.63,160.1ZM184.2,282.94l-22.27-22.5,21.93-22.73,22.73,22.73Zm48-.12-22.28-22.5,22.05-22.72,22.73,22.72Z"/><path class="cls-1" d="M499.2,217.83q-26.7,0-44.89-14.1a95.86,95.86,0,0,1-9.09-8.18,54.25,54.25,0,0,1-18.41,15.12,63.57,63.57,0,0,1-30,7.27h-41q-35.68,0-44.66-1.59-17.5-3-26.7-16.93a46.72,46.72,0,0,1-7.28-20,78.06,78.06,0,0,1-.45-8.53,93.45,93.45,0,0,1,.57-10.11,155.53,155.53,0,0,1,4.2-20.11q1-4.21,2.28-8.53c.3-1,.56-1.89.79-2.72a7.83,7.83,0,0,1,.34-1.25l35.8,10.11A283.44,283.44,0,0,0,313,172.14a14,14,0,0,0-.11,1.82,8.29,8.29,0,0,0,.79,3.75,4.93,4.93,0,0,0,4.89,3h78.29A28.17,28.17,0,0,0,409,177.94q5.8-2.73,7.73-6.59a9.71,9.71,0,0,0,.91-4.21q0-5.89-5.91-14.54L408,147.48q-7.72-9.54-19.89-25-4.55-5.67-8.06-10.11-3.19-4.09-3.3-4.2l6.59-28.3,98.52-47.5L498,65.89l-77.61,37.39Q426,110.44,455.45,149,470.23,169.08,477,174.3q8.19,6.25,22.16,6.25h1.7v37.28Z"/><path class="cls-1" d="M637,217.83a52.19,52.19,0,0,1-23.64-5.12,37.74,37.74,0,0,1-13.29,10.12A38.75,38.75,0,0,1,587.38,226c-1,.07-2,.11-3,.11q-13.75,0-29.32-6.59-5.68-2.39-12.39-6L540.11,212l-1.25-.68-1.14-.68q-2.84-1.59-4-2.16-12.27,9.19-34.88,9.2h-3.64V180.55h3.64q11.82,0,16.25-4.77,3.28-3.53,7.61-17.05c.23-.68.46-1.32.68-1.93a17.18,17.18,0,0,1,.91-2.5,64.05,64.05,0,0,1,2.62-6.25A72.24,72.24,0,0,1,536,133.39q15-18.51,38.41-18.52,25.91,0,39.77,21.48a66.4,66.4,0,0,1,8.18,18.86A75.58,75.58,0,0,1,625,172.6a6.91,6.91,0,0,0,2.16,5.45q2.85,2.63,9.89,2.62ZM589,185.1a26,26,0,0,0,1.48-8.87c0-.83,0-1.66-.11-2.5a28.61,28.61,0,0,0-5.12-15q-4.66-6.58-10.79-6.59-8.41,0-13.87,10a44.75,44.75,0,0,0-3.52,8.41c-.38,1.06-.8,2.35-1.25,3.87l-.45,1.7-.46,1.48A51,51,0,0,0,571.7,187q8.29,3,13.41,2.95C586.47,190,587.76,188.36,589,185.1Z"/><path class="cls-1" d="M769.43,66.92,695,100.78q9.78,9.66,27.39,28.3,15.11,16.24,21.25,30.22a47.47,47.47,0,0,1,4.2,18.75V179a35,35,0,0,1-10,24.21,43.17,43.17,0,0,1-15.22,9.77q-12.74,4.89-31,4.89H631.36V180.55h60.22q17.63,0,21-1.93a16.22,16.22,0,0,0-1.14-3,52.74,52.74,0,0,0-3.07-5,121.24,121.24,0,0,0-13.18-16.14q-19.77-21-34.32-35.11-2.5-2.39-4.77-4.44-1.71-1.7-3.3-3.06a15.06,15.06,0,0,0-1.13-1l-.8-.79-.34-.23-.11-.23-.23-.11,4.32-31.14L754,32.94Z"/><path class="cls-1" d="M302.42,103.61l34.49-27.93-7.77-3.63a2.38,2.38,0,0,1-1.25-2.89l6.82-21-19.86,4.22A2.39,2.39,0,0,1,312.17,51L308.32,42,292.82,58.6a2.38,2.38,0,0,1-4.07-2.09L296.23,18l-12,6.92A2.38,2.38,0,0,1,281,24l-.07-.13L268.74,0,256.57,23.9A2.38,2.38,0,0,1,253.38,25l-.14-.08-12-6.92,7.48,38.55a2.38,2.38,0,0,1-4.07,2.09L229.16,42,225.31,51a2.37,2.37,0,0,1-2.67,1.39l-19.87-4.22,6.82,21a2.38,2.38,0,0,1-1.25,2.89l-7.77,3.63,34.49,27.93a2.37,2.37,0,0,1,.73,2.67L231.54,118,263,112.48a3.48,3.48,0,0,1,4,2.84,3.78,3.78,0,0,1,0,.75l-1.65,31.63H272l-1.65-31.63a3.49,3.49,0,0,1,3.32-3.64,3.16,3.16,0,0,1,.75,0L305.94,118l-4.25-11.73A2.38,2.38,0,0,1,302.42,103.61Z"/></svg>