<svg xmlns="http://www.w3.org/2000/svg" width="21.965" height="22.006" viewBox="0 0 21.965 22.006">
  <path id="Icon_feather-phone" data-name="Icon feather-phone" d="M23.131,17.976v3.011A2.008,2.008,0,0,1,20.943,23a19.865,19.865,0,0,1-8.663-3.082,19.574,19.574,0,0,1-6.023-6.023,19.865,19.865,0,0,1-3.082-8.7A2.008,2.008,0,0,1,5.174,3H8.185a2.008,2.008,0,0,1,2.008,1.727,12.889,12.889,0,0,0,.7,2.821,2.008,2.008,0,0,1-.452,2.118L9.169,10.94a16.061,16.061,0,0,0,6.023,6.023l1.275-1.275a2.008,2.008,0,0,1,2.118-.452,12.889,12.889,0,0,0,2.821.7A2.008,2.008,0,0,1,23.131,17.976Z" transform="translate(-2.167 -2)" fill="none" stroke="#8e8e8e" stroke-linecap="round" stroke-linejoin="round" stroke-width="2"/>
</svg>
